<svg viewBox="0 60 1404 290" xmlns="http://www.w3.org/2000/svg" xmlns:xlink="http://www.w3.org/1999/xlink"  version="1.2" baseProfile="tiny"><title>Walrus operator</title>
<g><path fill="#000000" d=""/></g><g><path fill="none" stroke="#000000" stroke-width="6" stroke-linecap="butt" stroke-linejoin="round" d="M674.966 114.296 L675.325 114.33 "/></g><g><path fill="none" stroke="#000000" stroke-width="6" stroke-linecap="butt" stroke-linejoin="round" d="M637.061 112.586 L636.706 112.325 L637.314 112.021 L642.618 112.705 L644.4 112.678 L645.112 112.328 L648.981 112.414 L650.575 111.967 L653.048 111.929 L654.826 111.297 L671.077 110.794 L690.822 109.098 L700.134 108.827 L718.995 107.503 L758.454 107.346 L782.182 106.645 L784.407 106.876 L790.682 106.319 L804.376 106.924 L806.228 106.683 L813.148 107.292 L818.238 107.1 L822.216 107.67 L826.032 107.912 L831.083 107.762 L831.793 108.089 L833.725 107.705 L834.64 107.859 L834.843 107.549 L836.941 107.033 L837.26 106.409 L839.45 106.349 "/></g><g><path fill="none" stroke="#000000" stroke-width="6" stroke-linecap="butt" stroke-linejoin="round" d="M841.785 114.104 L842.182 122.822 L841.418 127.997 L842.16 142.202 L843.579 149.672 L845.356 156.077 L847.851 160.675 L848.476 160.816 L849.008 161.762 L850.235 162.814 "/></g><g><path fill="none" stroke="#000000" stroke-width="6" stroke-linecap="butt" stroke-linejoin="round" d="M843.603 163.12 L843.704 162.853 L843.28 162.682 L839.221 162.745 L825.398 163.835 L820.776 163.857 L813.539 164.665 L790.641 165.811 L776.246 165.784 L760.544 166.514 L753.918 166.314 L747.226 167.108 L722.086 167.624 L712.584 168.357 L696.424 168.768 L679.062 169.798 L674.95 169.741 L668.727 170.665 L665.027 170.732 L662.75 171.918 L661.608 171.965 L662.321 172.926 "/></g><g><path fill="none" stroke="#000000" stroke-width="6" stroke-linecap="butt" stroke-linejoin="round" d="M634.272 118.987 L633.553 115.407 L634.363 116.954 L637.052 127.765 L639.888 154.227 L641.95 165.827 L642.53 167.212 L643.956 167.533 "/></g><g><path fill="none" stroke="#000000" stroke-width="6" stroke-linecap="butt" stroke-linejoin="round" d="M643.462 203.181 L642.428 202.551 L641.713 201.37 L663.505 202.721 L679.831 203.072 L707.57 202.714 L714.092 202.996 L737.772 201.867 L758.348 201.267 L761.911 201.403 L769.692 200.784 L780.065 200.578 L795.294 200.954 L802.102 200.796 L808.209 201.337 L809.498 201.123 L811.745 201.736 L817.498 201.128 L823.191 201.366 L828.257 200.33 L829.476 200.345 L829.982 200.759 "/></g><g><path fill="none" stroke="#000000" stroke-width="6" stroke-linecap="butt" stroke-linejoin="round" d="M843.253 197.002 L842.814 196.285 L842.587 196.354 L843.056 196.41 L842.879 197.702 L843.329 200.845 L843.942 212.803 L845.303 223.331 L846.564 232.071 L847.954 235.681 L849.149 241.381 L852.407 251.595 L852.294 251.273 L852.173 251.722 L850.944 250.834 "/></g><g><path fill="none" stroke="#000000" stroke-width="6" stroke-linecap="butt" stroke-linejoin="round" d="M850.916 260.064 L850.868 259.716 L851.145 259.941 L850.887 260 L850.958 259.74 L850.897 260.037 L847.981 260.439 L847.688 260.767 L847.014 260.666 L846.175 261.202 L840.311 261.838 L805.354 263.98 L799.026 263.978 L784.772 264.783 L772.417 264.828 L752.571 265.634 L736.109 265.71 L725.268 266.392 L720.024 266.094 L714.912 266.749 L685.519 266.685 L659.839 266.146 L656.907 265.861 L657.562 265.318 L659.168 264.891 "/></g><g><path fill="none" stroke="#000000" stroke-width="6" stroke-linecap="butt" stroke-linejoin="round" d="M644.907 204.175 L644.035 202.844 L643.652 202.835 L643.923 202.162 L643.035 201.899 L643.258 201.98 L642.202 205.999 L642.301 210.656 L643.45 218.979 L646.17 231.754 L649.647 242.331 L651.708 250.383 L652.309 256.128 L652.488 262.9 L653.372 264.428 L654.865 265.785 "/></g><g><path fill="none" stroke="#000000" stroke-width="6" stroke-linecap="butt" stroke-linejoin="round" d="M553.057 114.013 L550.948 113.113 L546.273 114.409 L542.766 116.445 L540.63 119.001 L538.566 123.254 L537.48 129.205 L537.41 132.947 L537.866 136.865 L539.472 145.053 L542.466 151.571 L546.299 156.463 L551.098 160.882 L556.725 164.085 L563.097 166.517 L573.142 167.733 L577.461 166.959 L582.922 165.226 L588.299 162.372 L591.177 160.066 L592.495 159.412 L595.088 156.181 L596.362 154.038 L597.715 150.421 L598.039 147.414 L597.63 140.188 L595.261 129.208 L594.088 125.741 L593.511 125.363 L591.342 122.418 L589.818 121.06 L584.817 117.559 L579.159 115.799 L574.576 115.19 L571.428 114.368 L559.907 113.919 L553.19 114.543 L549.139 115.215 L546.969 116.048 L545.063 117.277 "/></g><g><path fill="none" stroke="#000000" stroke-width="6" stroke-linecap="butt" stroke-linejoin="round" d="M578.482 209.953 L576.475 207.191 L575.072 206.282 L573.097 205.536 L571.484 205.337 L568.6 205.785 L562.46 208.225 L556.675 212.332 L554.738 214.668 L552.705 219.45 L551.299 226.599 L551.19 232.906 L551.607 238.26 L553.009 243.497 L555.38 248.37 L557.809 251.504 L559.944 253.583 L565.798 258.302 L572.672 261.601 L578.667 264.058 L587.448 266.495 L594.229 267.012 L600.333 266.328 L603.763 264.924 L605.582 263.832 L612.415 257.487 L614.236 253.438 L616.325 245.953 L616.244 238.812 L615.872 236.514 L612.125 226.324 L611.349 225.037 L608.708 221.828 L607.544 221.29 L603.9 218.284 L599.773 215.696 L592.141 212.956 L586.994 211.653 L583.705 211.206 L580.373 211.231 L571.263 212.1 L567.989 212.894 L564.208 214.413 "/></g><g><path fill="none" stroke="#000000" stroke-width="6" stroke-linecap="butt" stroke-linejoin="round" d="M591.259 147.064 L591.42 146.162 L590.992 146.18 L590.701 146.713 L585.784 150.089 L584.676 151.285 L577.414 156.192 L575.804 157.61 L564.046 165.231 "/></g><g><path fill="none" stroke="#000000" stroke-width="6" stroke-linecap="butt" stroke-linejoin="round" d="M589.12 139.906 L588.932 138.38 L588.773 138.633 L587.428 138.667 L584.962 140.234 L582.532 142.423 L577.242 145.24 L568.519 151.709 L566.803 152.58 L561.964 156.056 L557.765 159.769 L557.879 160.441 L558.496 160.326 "/></g><g><path fill="none" stroke="#000000" stroke-width="6" stroke-linecap="butt" stroke-linejoin="round" d="M581.526 132.227 L581.356 130.629 L579.709 130.635 L577.104 131.843 L575.196 133.28 L568.443 136.944 L559.923 143.051 L553.979 146.671 L546.231 153.179 L545.48 153.893 L545.239 154.835 L545.034 154.75 "/></g><g><path fill="none" stroke="#000000" stroke-width="6" stroke-linecap="butt" stroke-linejoin="round" d="M572.189 123.628 L570.844 123.496 L567.785 124.969 L551.004 136.866 L541.006 146.748 "/></g><g><path fill="none" stroke="#000000" stroke-width="6" stroke-linecap="butt" stroke-linejoin="round" d="M605.922 250.171 L603.945 250.723 L601.809 252.642 L598.153 254.755 L595.927 255.677 L591.139 259.082 L588.465 260.329 L588.164 260.806 L586.065 262.099 L585.275 263.193 "/></g><g><path fill="none" stroke="#000000" stroke-width="6" stroke-linecap="butt" stroke-linejoin="round" d="M608.851 235.447 L607.854 234.194 L608.023 234.659 L606.822 234.836 L602.689 237.268 L598.599 240.923 L594.136 244.05 L591.309 246.835 L583.368 253.329 L577.576 258.912 L576.169 259.627 L575.97 260.404 L576.322 260.02 "/></g><g><path fill="none" stroke="#000000" stroke-width="6" stroke-linecap="butt" stroke-linejoin="round" d="M598.498 231.892 L597.281 230.555 L596.676 231.459 L593.982 232.033 L592.659 232.762 L586.091 236.928 L571.212 247.5 L569.568 248.284 L566.801 250.588 L565.468 252.116 L565.704 252.316 "/></g><g><path fill="none" stroke="#000000" stroke-width="6" stroke-linecap="butt" stroke-linejoin="round" d="M590.283 221.081 L589.269 220.235 L588.36 220.085 L583.623 221.937 L579.141 224.512 L573.824 228.521 L562.025 239.295 L557.716 243.768 L556.789 244.905 L555.977 246.8 L556.605 247.268 L556.994 246.978 "/></g><g><path fill="#000000" d="M1347.84 314.55 C1347.84 314.55 1347.84 314.55 1347.84 314.55 C1347.84 313.859 1347.99 313.154 1347.85 312.478 C1347.77 312.094 1347.08 311.871 1347.2 311.5 C1347.47 310.689 1348.43 310.28 1348.84 309.53 C1349.02 309.21 1348.94 308.793 1348.86 308.437 C1348.4 306.373 1348.23 304.166 1347.22 302.308 C1346.97 301.848 1346.22 302.952 1346.16 303.472 C1346.07 304.193 1346.93 304.821 1346.84 305.54 C1346.51 308.073 1346.73 311.144 1344.94 312.963 C1343.67 314.254 1341.31 313.17 1339.5 312.985 C1338.79 312.912 1338.22 312.235 1337.5 312.201 C1337.11 312.182 1336.92 312.843 1336.53 312.843 C1335.82 312.843 1335.21 312.201 1334.5 312.201 C1334.11 312.201 1333.9 312.726 1333.53 312.843 C1333.19 312.949 1332.81 312.949 1332.47 312.843 C1332.1 312.726 1331.89 312.184 1331.5 312.201 C1330.79 312.231 1330.21 312.979 1329.5 312.969 C1328.57 312.956 1327.76 312.023 1326.84 312.136 C1326.09 312.229 1325.77 313.369 1325.03 313.521 C1324.19 313.691 1323.36 312.958 1322.5 313.016 C1321.77 313.066 1321.19 313.932 1320.47 313.829 C1319.06 313.63 1317.96 312.178 1316.53 312.171 C1315.67 312.167 1315.33 313.529 1314.5 313.799 C1314.13 313.92 1313.92 313.157 1313.53 313.157 C1312.82 313.157 1312.2 313.703 1311.5 313.799 C1311.31 313.825 1311.16 313.628 1311.03 313.5 C1310.71 313.2 1310.35 312.916 1310.15 312.526 C1309.99 312.217 1310.02 311.843 1310.02 311.496 C1309.97 307.166 1309.77 302.828 1310.02 298.503 C1310.06 297.789 1310.68 297.221 1310.85 296.526 C1311.01 295.868 1311 295.177 1311 294.5 C1311 293.823 1311.03 293.128 1310.85 292.474 C1310.75 292.096 1310.21 291.891 1310.2 291.5 C1310.19 291.112 1310.8 290.889 1310.8 290.5 C1310.8 290.111 1310.19 289.888 1310.2 289.5 C1310.21 289.109 1310.79 288.912 1310.85 288.526 C1311.02 287.513 1311.14 286.435 1310.86 285.446 C1310.56 284.364 1309.46 283.616 1309.18 282.529 C1309.08 282.138 1309.76 281.918 1309.85 281.526 C1310.04 280.744 1309.21 279.238 1310.01 279.116 C1320.58 277.49 1331.38 277.904 1341.99 276.584 C1342.48 276.524 1341.98 275.317 1341.51 275.199 C1340.81 275.028 1340.22 275.969 1339.5 275.969 C1338.79 275.969 1338.21 275.241 1337.5 275.201 C1337.11 275.179 1336.89 275.808 1336.5 275.799 C1336.11 275.791 1335.9 275.274 1335.53 275.157 C1335.19 275.051 1334.81 275.051 1334.47 275.157 C1334.1 275.274 1333.89 275.791 1333.5 275.799 C1333.11 275.808 1332.89 275.192 1332.5 275.201 C1332.11 275.209 1331.9 275.726 1331.53 275.843 C1331.19 275.949 1330.81 275.934 1330.47 275.843 C1329.79 275.658 1329.21 275.039 1328.5 275.031 C1327.79 275.023 1327.21 275.771 1326.5 275.799 C1326.11 275.814 1325.9 275.248 1325.53 275.147 C1324.87 274.974 1324.18 275.002 1323.5 275.002 C1322.82 275.002 1322.13 274.974 1321.47 275.147 C1321.1 275.248 1320.89 275.814 1320.5 275.799 C1319.79 275.771 1319.21 275.031 1318.5 275.031 C1317.79 275.031 1317.21 275.799 1316.5 275.799 C1315.79 275.799 1315.21 275.023 1314.5 275.031 C1313.79 275.039 1313.24 275.795 1312.53 275.843 C1311.89 275.886 1311.33 275.167 1310.7 275.288 C1310.02 275.42 1309.65 276.227 1309.02 276.521 C1308.76 276.643 1308.19 276.19 1308.16 276.476 C1307.83 280.134 1307.84 283.827 1308.02 287.496 C1308.05 288.213 1308.77 288.784 1308.8 289.5 C1308.82 289.89 1308.25 290.096 1308.15 290.474 C1307.98 291.128 1307.92 291.827 1308.02 292.496 C1308.16 293.534 1308.81 294.481 1308.84 295.527 C1308.86 295.916 1308.16 296.084 1308.16 296.473 C1308.15 297.182 1308.8 297.791 1308.8 298.5 C1308.8 298.891 1308.2 299.087 1308.15 299.474 C1307.93 301.135 1307.86 302.829 1308.02 304.496 C1308.08 305.211 1308.77 305.784 1308.8 306.5 C1308.82 306.888 1308.27 307.102 1308.16 307.473 C1308.05 307.808 1308.05 308.192 1308.16 308.527 C1308.27 308.898 1308.82 309.112 1308.8 309.5 C1308.77 310.213 1308.13 310.792 1308.03 311.498 C1307.97 311.939 1308.1 312.412 1308.32 312.805 C1308.73 313.569 1309.01 314.756 1309.87 314.898 C1313.69 315.53 1317.63 315.194 1321.5 314.985 C1322.23 314.945 1322.81 314.132 1323.54 314.157 C1331.2 314.42 1338.8 315.719 1346.46 315.843 M1339.47 307.957 C1339.47 307.957 1339.47 307.957 1339.47 307.957 C1339.74 308.207 1340.01 308.967 1340.26 308.707 C1341.08 307.86 1341.76 306.712 1341.83 305.533 C1341.87 304.903 1341.11 304.391 1340.53 304.158 C1340.09 303.985 1339.41 304.079 1339.16 304.472 C1338.79 305.04 1338.95 305.822 1339.02 306.496 M1316.97 307.514 C1316.97 307.514 1316.97 307.514 1316.97 307.514 C1318.26 305.692 1319.46 303.805 1320.83 302.049 C1321.9 300.692 1323.24 299.561 1324.28 298.19 C1324.91 297.367 1325.84 296.535 1325.84 295.5 C1325.84 294.465 1324.98 293.574 1324.28 292.81 C1321.52 289.785 1318.82 286.606 1315.5 284.201 C1315 283.839 1314.47 284.939 1314.16 285.473 C1313.98 285.777 1313.93 286.261 1314.16 286.527 C1316.87 289.673 1320.33 292.164 1322.8 295.5 C1323.13 295.942 1322.01 296.29 1321.75 296.775 C1321.16 297.867 1321.05 299.222 1320.28 300.191 C1319.68 300.947 1318.58 301.122 1317.81 301.715 C1317.13 302.241 1316.5 302.849 1315.98 303.528 C1315.27 304.435 1314.52 305.361 1314.14 306.445 C1313.99 306.897 1314.02 307.673 1314.47 307.842 M1329.52 307.007 C1329.52 307.007 1329.52 307.007 1329.52 307.007 C1329.67 305.172 1330.07 303.343 1329.98 301.504 C1329.95 300.776 1329.05 300.19 1329.18 299.472 C1329.33 298.596 1329.99 297.807 1330.72 297.292 C1330.97 297.111 1331.18 297.751 1331.47 297.842 C1331.81 297.944 1332.19 297.949 1332.53 297.843 C1332.9 297.726 1333.11 297.209 1333.5 297.201 C1333.89 297.192 1334.11 297.808 1334.5 297.799 C1334.89 297.791 1335.1 297.276 1335.47 297.158 C1335.82 297.047 1336.22 297.003 1336.56 297.14 C1337.73 297.617 1339.26 297.859 1339.89 298.958 C1340.33 299.735 1339.13 300.611 1339.03 301.5 C1338.98 301.966 1339.05 302.62 1339.47 302.835 C1339.93 303.071 1340.53 302.759 1340.98 302.503 C1341.35 302.288 1341.75 301.93 1341.8 301.501 C1341.84 301.114 1341.19 300.889 1341.2 300.5 C1341.21 300.112 1341.73 299.898 1341.84 299.527 C1341.95 299.192 1341.96 298.805 1341.84 298.473 C1341.72 298.105 1341.28 297.895 1341.16 297.527 C1341.04 297.195 1341.05 296.808 1341.16 296.473 C1341.27 296.102 1341.79 295.888 1341.8 295.5 C1341.81 295.112 1341.2 294.889 1341.2 294.5 C1341.2 294.111 1341.8 293.889 1341.8 293.5 C1341.8 293.111 1341.19 292.888 1341.2 292.5 C1341.21 292.109 1341.79 291.912 1341.85 291.526 C1342.06 290.201 1342.03 288.846 1341.99 287.506 C1341.97 287.058 1341.9 286.589 1341.68 286.195 C1341.27 285.433 1340.87 284.569 1340.13 284.104 C1339.66 283.807 1338.93 283.853 1338.47 284.159 C1338.08 284.42 1338.06 285.033 1338.02 285.504 C1337.95 286.176 1337.99 286.87 1338.15 287.526 C1338.32 288.222 1338.91 288.791 1338.98 289.504 C1339.15 291.171 1339.28 292.911 1338.84 294.528 C1338.72 294.985 1337.97 294.955 1337.5 294.984 C1335.5 295.108 1333.5 295.113 1331.5 294.985 C1330.98 294.951 1330.46 294.777 1330.02 294.503 C1329.65 294.274 1329.19 293.96 1329.16 293.527 C1329.11 292.821 1329.79 292.209 1329.8 291.5 C1329.8 291.112 1329.18 290.888 1329.2 290.5 C1329.24 289.784 1329.91 289.21 1329.98 288.496 C1330.13 287.163 1330.2 285.768 1329.85 284.474 C1329.69 283.874 1329.11 283.375 1328.53 283.158 C1328.09 282.995 1327.19 283.005 1327.16 283.472 C1326.66 289.795 1326.82 296.158 1327.02 302.496 C1327.04 303.213 1327.77 303.784 1327.8 304.5 C1327.82 304.888 1327.27 305.102 1327.16 305.473 C1327.05 305.808 1326.99 306.22 1327.16 306.527 C1327.46 307.069 1327.89 307.628 1328.47 307.842 C1328.9 308 1329.45 307.787 1329.8 307.502 M1347.47 300.002 C1347.47 300.002 1347.47 300.002 1347.47 300.002 C1347.64 299.504 1347.93 299.031 1347.97 298.508 C1348 298.091 1348.06 297.094 1347.69 297.285 C1346.9 297.69 1346.43 298.608 1346.14 299.446 C1345.99 299.887 1346.06 300.62 1346.49 300.8 M1348.98 289.539 C1348.98 289.539 1348.98 289.539 1348.98 289.539 C1348.94 288.853 1349.29 288.004 1348.84 287.481 C1348.54 287.13 1347.93 287.957 1347.5 287.799 C1347.18 287.683 1347 287.161 1347.14 286.855 C1347.54 285.958 1348.68 285.483 1348.98 284.544 C1349.29 283.568 1349.06 282.477 1348.85 281.474 C1348.77 281.091 1348.16 280.919 1348.16 280.527 C1348.15 279.807 1348.99 279.173 1348.82 278.472 C1348.6 277.536 1347.81 276.818 1347.13 276.136 C1346.98 275.988 1346.64 275.98 1346.5 276.143 C1346.2 276.516 1346.06 277.024 1346.02 277.504 C1345.9 278.829 1345.84 280.177 1346.02 281.496 C1346.11 282.208 1346.76 282.784 1346.8 283.5 C1346.82 283.888 1346.2 284.111 1346.2 284.5 C1346.2 284.889 1346.81 285.112 1346.8 285.5 C1346.79 285.888 1346.28 286.101 1346.16 286.471 C1346.05 286.817 1346.04 287.21 1346.14 287.562 C1346.66 289.557 1347.14 291.587 1347.98 293.466 C1348.1 293.723 1348.8 293.806 1348.83 293.525 C1348.91 292.822 1348.17 292.206 1348.2 291.5 M1339.18 287.541 C1339.18 287.541 1339.18 287.541 1339.18 287.541 C1339.29 287.092 1339.04 286.207 1339.5 286.195 C1339.95 286.184 1339.93 287.08 1339.83 287.524 M1343.95 277.52 C1343.95 277.52 1343.95 277.52 1343.95 277.52 C1344.25 277.19 1344.74 276.963 1344.84 276.532 C1344.95 276.078 1344.92 275.414 1344.53 275.166 C1344.13 274.916 1343.39 275.067 1343.16 275.472 C1342.82 276.064 1342.92 276.886 1343.16 277.523 "/></g>
</svg>
