<svg viewBox="0 0 1404 470" xmlns="http://www.w3.org/2000/svg" xmlns:xlink="http://www.w3.org/1999/xlink"  version="1.2" baseProfile="tiny"><title>Docker Port Mapping</title>
<g><path fill="#000000" d="M1352.5 83.8538 C1352.5 83.8538 1352.5 83.8538 1352.5 83.8538 C1352.95 83.411 1353.52 83.0614 1353.85 82.5254 C1354.03 82.2337 1354.04 81.8364 1353.97 81.5 C1353.82 80.8018 1353.24 80.2131 1353.2 79.5 C1353.18 79.1122 1353.8 78.8885 1353.8 78.5 C1353.8 78.1115 1353.18 77.8877 1353.2 77.4999 C1353.24 76.7841 1353.92 76.2106 1353.98 75.4965 C1354.14 73.8289 1354.07 72.1345 1353.85 70.4739 C1353.8 70.0866 1353.18 69.8902 1353.2 69.5 C1353.23 68.7836 1353.87 68.2042 1353.98 67.4963 C1354.09 66.8294 1354.02 66.1275 1353.85 65.4739 C1353.75 65.096 1353.21 64.8905 1353.2 64.5001 C1353.19 64.1117 1353.81 63.8884 1353.8 63.5 C1353.79 63.1115 1353.14 62.9154 1353.16 62.5273 C1353.21 61.4811 1353.87 60.5369 1353.98 59.4965 C1354.1 58.4946 1354.06 57.4612 1353.85 56.4739 C1353.77 56.0907 1353.14 55.9184 1353.16 55.5272 C1353.19 54.4806 1353.92 53.5417 1353.98 52.4965 C1354.15 49.8264 1354.32 47.1045 1353.84 44.4722 C1353.76 44.0112 1352.94 44.0926 1352.47 44.1573 C1352.09 44.211 1351.89 44.7991 1351.5 44.7991 C1351.11 44.7992 1350.91 44.2114 1350.53 44.1573 C1350.07 44.0925 1349.41 44.0768 1349.17 44.4712 C1348.92 44.8669 1349.12 45.5315 1349.47 45.8404 C1349.84 46.1675 1350.74 45.5819 1350.94 46.0346 C1351.97 48.3709 1352.47 50.9312 1352.84 53.4595 C1352.9 53.8622 1352.16 54.0657 1352.16 54.4725 C1352.15 55.1814 1352.79 55.7911 1352.8 56.5 C1352.8 56.8884 1352.2 57.1115 1352.2 57.5 C1352.2 57.8885 1352.82 58.1123 1352.8 58.5001 C1352.76 59.2158 1352.06 59.7877 1352.02 60.5035 C1351.79 64.1612 1351.79 67.8388 1352.02 71.4965 C1352.06 72.2123 1352.77 72.7836 1352.8 73.5 C1352.82 73.8902 1352.2 74.0866 1352.15 74.4739 C1351.91 76.2921 1353.06 78.5133 1351.95 79.972 C1350.79 81.4892 1348.41 81.4915 1346.54 81.8349 C1346.14 81.9083 1345.92 81.2554 1345.53 81.1475 C1344.87 80.9683 1344.18 81.0085 1343.5 81.001 C1340.17 80.9643 1336.83 80.794 1333.5 81.0151 C1332.79 81.0627 1332.22 81.799 1331.5 81.7991 C1330.78 81.7993 1330.2 81.1307 1329.5 81.0161 C1328.83 80.9082 1328.13 80.9767 1327.47 81.1475 C1327.1 81.2462 1326.89 81.7972 1326.5 81.7991 C1326.11 81.801 1325.92 81.157 1325.53 81.157 C1324.82 81.157 1324.21 81.7991 1323.5 81.7991 C1323.11 81.7991 1322.92 81.157 1322.53 81.157 C1321.82 81.157 1321.21 81.7991 1320.5 81.7991 C1320.11 81.7991 1319.9 81.2743 1319.53 81.157 C1319.19 81.0508 1318.81 81.0508 1318.47 81.157 C1318.1 81.2743 1317.89 81.8339 1317.5 81.7992 C1317.07 81.7608 1316.73 81.3428 1316.5 80.9801 C1316.22 80.5431 1316.02 80.0164 1316.02 79.4965 C1315.86 68.7039 1308.74 55.0909 1316.01 47.1155 C1323.19 39.236 1337.29 45.6514 1347.9 44.5369 C1348.71 44.4517 1346.32 43.9676 1345.5 44.0162 C1344.79 44.0589 1344.22 44.7675 1343.5 44.7991 C1343.11 44.8164 1342.9 44.2463 1342.53 44.1475 C1341.87 43.9767 1341.17 43.9026 1340.5 44.0162 C1339.78 44.1398 1339.19 44.8785 1338.46 44.8414 C1333.46 44.5887 1328.54 43.4846 1323.54 43.1586 C1323.14 43.132 1322.91 43.7996 1322.5 43.7994 C1322.11 43.7992 1321.9 43.2762 1321.53 43.1576 C1321.18 43.0463 1320.79 43.0392 1320.44 43.1371 C1318.77 43.6027 1317.24 44.5287 1315.54 44.8329 C1315.14 44.9044 1314.89 44.3017 1314.49 44.1995 C1314.35 44.1633 1314.17 44.332 1314.16 44.476 C1314.01 50.1475 1313.83 55.826 1314.02 61.4965 C1314.04 62.2132 1314.77 62.7837 1314.8 63.5 C1314.82 63.8881 1314.27 64.1023 1314.16 64.4727 C1314.05 64.8078 1314.05 65.1922 1314.16 65.5273 C1314.27 65.8977 1314.82 66.1118 1314.8 66.5 C1314.77 67.2135 1314.03 67.7858 1314.03 68.5 C1314.04 69.2259 1314.94 69.8124 1314.82 70.5287 C1314.65 71.583 1313.27 72.2472 1313.24 73.3154 C1313.22 73.99 1314.72 74.0287 1314.71 74.7034 C1314.7 75.4858 1313.35 75.7316 1313.2 76.4995 C1313.06 77.2005 1313.98 77.7857 1313.97 78.5 C1313.96 79.2117 1313.31 79.7795 1313.15 80.4719 C1313.02 81.0106 1312.79 81.6744 1313.1 82.1327 C1313.65 82.9346 1314.49 83.7255 1315.45 83.8558 C1316.81 84.0416 1318.12 83.1084 1319.5 83.001 C1321.17 82.8707 1322.86 82.9265 1324.53 83.1475 C1324.91 83.199 1325.11 83.7972 1325.5 83.7991 C1325.89 83.801 1326.1 83.2743 1326.47 83.1569 C1326.81 83.051 1327.19 83.0555 1327.53 83.1577 C1327.83 83.2515 1328 83.7822 1328.31 83.7172 C1328.81 83.6151 1328.98 82.731 1329.48 82.7541 C1330.25 82.7889 1330.74 83.7625 1331.49 83.8624 C1331.9 83.9152 1332.09 83.2592 1332.47 83.1478 C1333.12 82.9613 1333.82 83.001 1334.5 83.001 C1335.51 83.0011 1336.54 82.9386 1337.53 83.1479 C1337.91 83.229 1338.08 83.8417 1338.47 83.8427 C1339.52 83.8451 1340.48 83.1311 1341.53 83.1573 C1342.24 83.1752 1342.79 83.9692 1343.5 83.9692 C1344.54 83.9691 1345.48 83.1906 1346.53 83.1573 C1346.92 83.1449 1347.08 83.837 1347.47 83.8427 C1348.18 83.853 1348.79 83.1987 1349.5 83.2009 C1349.89 83.202 1350.09 83.7687 1350.47 83.8518 M1321.96 76.5118 C1321.96 76.5118 1321.96 76.5118 1321.96 76.5118 C1322.55 75.6112 1323.04 74.6448 1323.71 73.8101 C1326.01 70.9771 1328.75 68.5047 1330.85 65.5263 C1331.24 64.9742 1331.05 64.176 1330.98 63.5037 C1330.93 62.9857 1330.85 62.4065 1330.5 62.0182 C1327.99 59.2016 1325.19 56.6539 1322.5 54.0013 C1322.19 53.6998 1321.92 53.3227 1321.53 53.1579 C1321.2 53.0229 1320.78 52.9823 1320.47 53.158 C1319.94 53.4659 1319.49 53.9565 1319.2 54.5 C1319.11 54.6651 1319.36 54.8517 1319.5 54.9752 C1320.34 55.7155 1321.34 56.2792 1322.13 57.0738 C1322.85 57.79 1323.27 58.7598 1323.99 59.4752 C1324.29 59.7795 1324.83 59.7641 1325.13 60.0737 C1326.14 61.1174 1327.07 62.2524 1327.85 63.4739 C1328.04 63.7632 1328.08 64.1714 1327.97 64.4979 C1327.55 65.7729 1327.16 67.1317 1326.31 68.1655 C1325.44 69.2145 1323.93 69.5544 1322.98 70.5294 C1321.85 71.686 1320.83 73.0019 1320.16 74.4724 C1319.94 74.9412 1320.24 75.5338 1320.5 75.9795 C1320.71 76.3553 1321.1 76.6548 1321.51 76.8033 M1346.98 75.5393 C1346.98 75.5393 1346.98 75.5393 1346.98 75.5393 C1346.94 74.5168 1347.45 73.2936 1346.84 72.4717 C1346.37 71.833 1345.19 71.8057 1344.48 72.1626 C1344.07 72.368 1344.84 73.0419 1344.8 73.498 C1344.77 73.8122 1344.17 74.0036 1344.29 74.295 C1344.54 74.9122 1345.46 75.0875 1345.71 75.705 C1345.83 75.9982 1345.02 76.2504 1345.2 76.5075 C1345.47 76.8768 1346.13 77.0519 1346.53 76.8344 M1334.98 74.5394 C1334.98 74.5394 1334.98 74.5394 1334.98 74.5394 C1335.04 73.1842 1334.93 71.8127 1335.15 70.4739 C1335.21 70.0883 1335.8 69.8906 1335.8 69.5 C1335.8 69.1109 1335.26 68.9017 1335.15 68.5298 C1335 68.0559 1334.59 67.252 1335.04 67.046 C1337.39 65.9767 1339.96 64.9973 1342.53 65.1585 C1343.89 65.2437 1344.87 66.6481 1345.71 67.7154 C1345.9 67.9626 1345.21 68.1674 1345.15 68.4763 C1345.02 69.1474 1344.81 69.9375 1345.16 70.5276 C1345.39 70.9318 1346.06 70.8347 1346.53 70.8347 C1346.68 70.8347 1346.83 70.6737 1346.84 70.5277 C1346.99 68.1904 1347.15 65.8395 1346.98 63.5035 C1346.93 62.7882 1346.2 62.2171 1346.2 61.5 C1346.2 60.7829 1346.91 60.2092 1346.98 59.4965 C1347.17 57.8425 1347.11 56.1632 1346.98 54.5035 C1346.95 53.9848 1346.78 53.4612 1346.5 53.0194 C1346.27 52.6511 1345.95 52.2512 1345.53 52.1583 C1345.06 52.0564 1344.08 52.0302 1344.14 52.5018 C1344.26 53.4658 1345.38 54.01 1345.86 54.8537 C1345.97 55.0397 1346.05 55.4226 1345.85 55.4961 C1345.32 55.6896 1344.44 54.9849 1344.16 55.476 C1343.66 56.3621 1343.98 57.5241 1344.15 58.526 C1344.21 58.9139 1344.75 59.095 1344.85 59.4739 C1345.03 60.1242 1345.05 60.8237 1344.98 61.4961 C1344.94 61.9678 1344.86 62.5076 1344.53 62.8428 C1344.28 63.0884 1343.84 62.9772 1343.5 62.9843 C1341.5 63.0246 1339.5 63.1132 1337.5 62.9848 C1336.98 62.9514 1336.46 62.7771 1336.02 62.5026 C1335.65 62.2737 1335.19 61.96 1335.16 61.5275 C1335.11 60.8205 1335.8 60.2088 1335.8 59.5 C1335.8 59.1115 1335.27 58.8977 1335.16 58.5273 C1335.05 58.1922 1335.04 57.8048 1335.16 57.4728 C1335.29 57.103 1335.79 56.9117 1335.85 56.526 C1336.03 55.5236 1336.15 54.4474 1335.85 53.4737 C1335.67 52.8759 1335.11 52.3753 1334.53 52.1491 C1333.89 51.902 1333.15 52.0531 1332.48 52.1634 C1332.32 52.19 1332.15 52.373 1332.16 52.5372 C1332.59 60.1331 1333.05 67.7328 1333.81 75.3028 C1333.84 75.5861 1334.27 75.9532 1334.51 75.7977 "/></g><g><path fill="none" stroke="#000000" stroke-width="4" stroke-linecap="butt" stroke-linejoin="round" d="M86.5294 158.031 L85.9133 157.58 L86.1949 157.591 L85.9126 157.671 L86.5922 157.777 L86.1118 157.912 L86.379 159.429 L86.2126 160.747 L86.6039 161.375 L86.6826 164.602 L87.1314 165.985 L86.8164 167.658 L87.0725 168.889 L86.9315 173.034 L87.465 176.506 L87.6985 183.984 L87.687 190.648 L87.3794 193.3 L87.6516 194.829 L87.344 196.839 L88.0843 204.921 L88.1149 213.832 L88.7553 217.092 L88.5121 219.053 L88.8944 221.21 L88.9144 227.529 L89.2642 228.857 L89.4095 233.126 L90.2134 235.775 L90.031 238.079 L90.8874 241.273 L90.4506 242.542 L90.6202 245.231 L91.2173 246.55 L91.8486 246.874 L92.7543 246.634 "/></g><g><path fill="none" stroke="#000000" stroke-width="4" stroke-linecap="butt" stroke-linejoin="round" d="M88.3102 158.835 L87.8587 158.835 L88.6438 157.738 L92.7341 157.846 L104.108 157.03 L106.42 157.283 L111.65 157.021 L117.712 157.155 L124.802 156.477 L132.483 157.535 L137.762 157.382 L144.055 157.795 L157.184 157.651 L162.06 158.057 L163.74 157.904 L168.515 158.441 L171.988 158.359 L172.871 158.703 L175.608 158.262 L180.622 158.391 L181.629 158.844 L182.277 158.431 L183.702 158.328 L190.137 158.933 L197.026 158.772 L199.884 159.164 L208.618 159.369 L209.182 159.682 L216.291 159.708 L217.311 160.043 L219.451 160.114 L220.17 159.805 L227.044 160.087 L232.478 160.969 L233.601 160.701 L241.392 160.926 L242.73 160.457 L244.579 160.372 L248.085 160.574 L251.735 160.221 L255.799 160.591 L265.323 160.254 L266.675 159.803 L269.162 160.336 L272.869 159.843 L281.603 160.024 L285.499 159.457 L307.437 158.845 L320.775 157.603 L322.62 157.89 L325.23 157.451 L333.639 157.513 L339.219 156.849 L353.655 156.725 L356.402 156.28 L364.824 156.26 L370.574 155.855 L381.866 156.186 L385.487 156.053 L386.645 155.735 L390.918 156.116 L395.813 155.772 L397.943 156.126 L426.171 156.791 L442.835 155.831 L450.785 155.671 L452.093 155.913 L461.342 155.788 L464.536 156.016 L471.641 155.57 L476.111 155.628 L478.878 155.205 L494.573 154.937 L497.679 154.591 L502.414 154.863 L504.334 154.364 L509.215 154.143 L513.617 154.386 L515.851 153.937 L524.188 153.617 L549.989 153.223 L561.977 152.54 L574.809 152.306 L577.223 151.996 L582.266 152.152 L592.721 151.514 L611.659 151.334 L657.516 150.17 L661.458 149.852 L664.008 150.111 L675.537 149.773 L696.36 149.995 L702.202 150.502 L705.419 150.202 L710.456 150.593 L713.505 150.547 L714.709 150.175 L723.955 150.759 L727.897 150.844 L728.932 150.583 L729.891 150.909 L756.701 151.63 L764.429 151.122 L768.41 151.288 L776.492 150.951 L798.348 151.462 L810.645 151.324 L813.569 151.655 L816.056 151.402 L820.249 151.846 L824.971 151.675 L829.56 152 L841.982 151.848 L843.856 152.176 L864.144 151.288 L869.214 151.438 L885.639 150.933 L893.418 151.186 L900.66 150.838 L905.323 151.205 L914.753 151.038 L920.749 151.367 L922.193 151.14 L927.457 151.568 L939.371 151.224 L961.223 151.69 L963.648 152.148 L997.097 153.329 L1029.07 154.041 L1032.17 153.783 L1034.02 154.136 L1040.1 154.007 L1047.38 154.415 L1052.53 154.057 L1057.33 154.227 L1080.64 153.62 L1086.01 153.762 L1087.45 153.41 L1087.99 153.746 L1099.34 153.721 L1101.56 153.961 L1107.21 153.59 L1108.6 153.944 L1121.85 154.588 L1143.23 156.94 L1150.59 157.14 L1154.77 157.661 L1158.46 157.342 L1160.56 157.709 L1162.92 157.352 L1167.35 157.516 L1199.49 156.21 L1204.69 156.467 L1208.27 155.984 L1211.08 156.17 L1224 155.789 L1233.9 156.286 L1234.44 156.079 L1237.28 156.608 L1239.56 156.4 L1248.08 156.825 L1249.27 156.573 L1250.37 156.904 L1264.81 157.119 L1266.79 157.584 L1272.11 157.572 L1274.41 157.898 L1281.49 157.593 L1284.16 157.151 L1286.16 157.353 L1287.43 157.095 L1291.67 157.157 L1293.88 156.709 L1295.18 156.888 L1295.41 156.501 L1296.05 156.825 L1296.91 156.39 L1300.79 156.509 L1303.04 156 L1306.42 156.374 L1306.79 156.023 L1307.71 156.397 L1308.42 155.984 L1310.81 155.862 L1311.99 156.114 L1313 155.737 L1317.88 155.716 L1317.56 155.506 L1317.47 156.254 "/></g><g><path fill="none" stroke="#000000" stroke-width="4" stroke-linecap="butt" stroke-linejoin="round" d="M1312.7 157.718 L1313.32 157.159 L1313.18 156.759 L1313.78 156.777 L1314.73 157.602 L1315.22 158.599 L1315.73 164.968 L1318.16 178.363 L1318.47 185.474 L1319.47 193.719 L1319.08 203.295 L1319.01 216.707 L1320.39 224.709 L1322.29 232.239 L1322.2 234.042 L1322.61 237.415 L1322.23 248.259 "/></g><g><path fill="none" stroke="#000000" stroke-width="4" stroke-linecap="butt" stroke-linejoin="round" d="M1313.52 247.671 L1312.59 247.181 L1311.17 247.133 L1310.61 247.499 L1306.18 248.322 L1298.67 248.405 L1297.57 248.161 L1297.31 248.39 L1293.01 248.257 L1291.11 248.511 L1290.25 248.279 L1284.62 248.396 L1281.51 247.745 L1279.72 248.188 L1276.91 248.354 L1276.13 248.101 L1273.18 248.44 L1269.58 248.373 L1268.38 248.959 L1264.31 249.027 L1263.45 248.78 L1261.56 249.263 L1260.68 249.129 L1254.01 249.861 L1248.52 250.016 L1246.84 249.783 L1245.75 250.113 L1239.87 250.068 L1238.04 250.318 L1234.54 249.798 L1231.8 250.33 L1222 250.461 L1220.68 250.198 L1218.51 250.491 L1210.37 250.047 L1208.74 250.414 L1206.02 250.253 L1198.54 250.68 L1195.22 250.286 L1192.5 250.561 L1190.57 250.216 L1187.96 250.492 L1185.84 250.126 L1183.28 250.277 L1181.05 249.685 L1180.34 250.115 L1178.77 250.337 L1176.39 250.048 L1168.56 250.078 L1167 249.61 L1166.14 250.012 L1163.75 249.812 L1162.07 250.15 L1157.89 250.184 L1156.58 249.842 L1154.07 250.35 L1152.09 249.957 L1150.88 250.298 L1138.42 250.048 L1132.39 250.266 L1131.21 250.619 L1127.59 250.277 L1126.55 250.767 L1124.64 250.632 L1119.22 251.305 L1117.51 251.034 L1114.68 251.379 L1113.6 251.01 L1112.58 251.495 L1108.96 251.279 L1107.89 251.655 L1099.76 251.786 L1093.52 252.336 L1092.4 252.797 L1089.53 252.348 L1088.12 252.841 L1076.09 253.059 L1075.37 252.807 L1073.38 253.073 L1069.29 252.701 L1064.24 252.969 L1062.85 252.588 L1061.05 252.88 L1054.93 252.961 L1043.59 252.725 L1039.92 252.977 L1034.38 252.733 L1024.53 252.973 L1022.65 252.597 L1011.97 252.691 L1004.73 252.398 L1003.48 252.054 L1001.77 252.345 L997.891 252.013 L996.684 252.242 L995.579 251.906 L993.213 251.956 L986.131 250.991 L982.588 250.977 L981.679 250.635 L975.711 250.203 L973.166 250.258 L971.905 249.938 L962.168 249.332 L960.465 249.346 L959.072 249.724 L958.515 249.267 L957.965 249.441 L955.581 248.873 L952.904 249.133 L947.336 248.473 L944.629 248.553 L943.906 248.13 L942.43 248.336 L932.608 247.757 L928.648 247.242 L924.666 247.333 L920.757 246.774 L917.804 246.982 L913.625 246.444 L911.915 246.821 L907.315 246.133 L905.772 246.498 L901.241 246.66 L884.685 245.964 L881.181 246.084 L880.225 246.433 L879.839 246.094 L877.561 245.91 L876.621 246.298 L872.494 246.429 L871.575 246.752 L864.76 246.766 L861.848 247.211 L855.194 247.434 L851.038 247.298 L849.455 247.544 L848.004 247.287 L846.835 247.84 L845.716 247.418 L843.53 247.465 L841.326 247.825 L825.368 248.29 L822.006 248.805 L820.574 248.545 L813.992 248.866 L811.973 248.394 L810.658 249.002 L809.997 248.785 L805.538 249.225 L803.802 248.958 L802.883 249.338 L799.988 249.251 L796.89 249.914 L793.484 249.901 L791.651 250.231 L787.6 250.393 L786.541 250.155 L783.357 250.493 L781.765 250.142 L780.453 250.565 L767.059 251.117 L763.639 250.944 L761.345 251.41 L757.717 251.333 L756.182 251.658 L754.712 251.423 L748.745 251.838 L748.058 251.612 L741.611 251.888 L735.159 251.75 L733.45 252.002 L730.002 251.86 L728.618 251.493 L727.975 251.828 L723.648 252.009 L720.57 251.734 L709.574 251.801 L701.323 251.296 L696.142 251.574 L694.416 251.189 L689.965 251.358 L681.543 250.936 L680.12 251.273 L676.391 251.18 L675.11 250.814 L665.043 250.892 L653.489 250.3 L647.851 250.462 L642.417 250.262 L640.689 249.916 L639.122 250.308 L633.435 249.965 L624.652 250.313 L623.29 249.837 L620.153 250.224 L606.461 249.876 L603.846 250.226 L602.543 250.08 L601.904 250.415 L599.216 250.151 L595.661 250.37 L594.611 250.119 L593.559 250.373 L591.518 250.026 L590.565 250.423 L580.32 250.038 L578.449 250.402 L575.966 250.027 L575.338 250.355 L569.333 250.554 L567.967 250.201 L564.529 250.46 L556.163 249.929 L554.262 250.33 L546.747 249.857 L545.949 249.551 L543.671 249.952 L539.186 249.918 L533.942 249.274 L532.094 249.536 L527.626 249.372 L525.948 248.897 L521.528 249.205 L516.168 248.543 L513.398 248.878 L510.911 248.282 L508.415 248.557 L507.08 247.902 L505.477 248.241 L499.802 247.928 L496.7 248.166 L491.351 247.26 L488.779 247.624 L482.596 246.758 L479.674 246.754 L475.843 246.28 L474.71 245.843 L470.707 245.991 L464.006 245.702 L462.16 245.264 L460.246 245.55 L458.358 245.103 L453.743 245.297 L447.231 244.98 L442.593 244.712 L441.044 244.163 L439.501 244.683 L431.341 244.335 L429.132 244.589 L427.656 244.117 L423.858 244.717 L419.535 244.867 L417.415 244.587 L415.289 244.851 L413.559 244.493 L409.844 244.859 L408.475 244.476 L403.239 244.731 L396.836 244.124 L386.104 244.096 L382.699 243.702 L380.727 243.964 L376.497 243.707 L375.336 243.963 L369.038 244.058 L368.25 243.544 L366.503 244.075 L360.625 244.036 L358.438 243.556 L356.084 244.102 L353.796 243.701 L350.401 244.348 L348.793 244.096 L342.815 244.696 L341.425 244.546 L338.27 245.185 L334.214 244.94 L328.463 245.64 L324.487 245.063 L323.186 245.583 L321.174 245.71 L316.237 245.605 L314.844 246.079 L311.902 245.888 L308.126 246.196 L305.997 245.821 L305.298 246.133 L301.914 246.169 L299.26 246.59 L297.173 246.19 L294.952 246.535 L293.574 246.299 L290.569 246.552 L289.444 246.169 L289.062 246.494 L283.186 246.539 L280.235 246.083 L275.208 246.364 L274.24 246.133 L270.746 246.252 L270.523 246.014 L268.635 246.275 L267.897 245.927 L259.516 246.146 L257.101 246.488 L255.759 246.247 L253.674 246.562 L252.7 246.317 L244.181 247.31 L241.577 247.352 L239.433 246.983 L237.965 247.33 L234.943 247.296 L230.751 247.846 L227.16 247.637 L221.62 247.983 L220.922 247.648 L220.127 247.719 L219.238 248.265 L214.913 248.246 L211.984 248.985 L210.215 248.734 L206.319 249.293 L200.804 249.245 L199.112 249.607 L195.833 249.539 L193.725 249.887 L189.822 249.92 L189.16 249.45 L187.3 249.974 L182.125 249.794 L179.513 249.186 L179.461 249.457 L178.606 249.042 L176.882 249.476 L175.398 249.012 L173.786 249.291 L173.802 249.078 L172.494 248.973 L171.07 249.268 L169.889 248.964 L168.392 249.517 L167.734 249.082 L165.838 248.815 L165.036 249.202 L163.755 249.263 L163.354 248.93 L161.194 249.431 L158.23 249.125 L154.881 249.512 L144.86 249.439 L143.17 249.801 L139.78 249.483 L137.59 249.788 L127.884 249.664 L126.358 249.326 L125.386 249.584 L122.575 249.317 L120.457 249.595 L111.138 249.58 L108.008 248.982 L105.714 249.241 L104.003 248.868 L99.4806 249.004 L97.0464 248.567 L93.6659 248.887 L89.9402 248.722 L85.3523 247.938 L85.2652 247.647 L85.795 247.484 L86.8851 248.259 "/></g><g><path fill="none" stroke="#000000" stroke-width="4" stroke-linecap="butt" stroke-linejoin="round" d="M677.69 152.674 L678.92 152.779 L679.127 152.523 L678.802 152.874 L679.005 152.757 L678.916 153.113 L679.129 152.96 L678.732 152.938 L679.138 153.03 L678.699 153.058 L679.179 153.243 L679.573 154.555 L680.123 155.227 L682.062 166.048 L681.977 169.243 L682.391 175.06 L682.068 176.707 L682.331 176.9 L682.368 177.787 L682.267 182.995 L682.899 186.167 L682.807 190.395 L683.126 191.522 L683.347 197.88 L683.757 199.174 L684.139 216.78 L685.037 221.898 L685.019 235.561 L685.655 240.251 L686.021 240.578 L685.986 240.245 L688.175 247.032 L687.909 249.653 "/></g><g><path fill="none" stroke="#000000" stroke-width="4" stroke-linecap="butt" stroke-linejoin="round" d="M505.545 157.853 L505.124 157.852 L505.53 157.934 L505.606 158.865 L505.935 159.254 L506.574 162.048 L506.47 163.864 L507.043 164.779 L506.722 165.354 L506.832 167.477 L507.196 167.944 L507.298 169.517 L507.215 173.497 L506.887 175.139 L507.143 176.631 L506.907 180.173 L507.273 183.062 L506.868 185.678 L507.159 186.548 L507.102 189.403 L507.699 192.04 L507.535 193.065 L507.986 194.993 L507.795 196.817 L508.294 197.815 L507.835 198.822 L507.996 204.118 L508.33 205.599 L508.061 206.042 L508.093 207.795 L508.486 209.011 L508.334 210.065 L509.238 214.845 L509.439 217.733 L510.115 220.577 L509.943 221.464 L510.328 225.219 L510.781 226.391 L510.694 227.61 L511.701 233.732 L512.54 236.734 L513.872 239.29 L513.589 240.521 L512.621 241.127 L511.85 241.216 "/></g><g><path fill="none" stroke="#000000" stroke-width="4" stroke-linecap="butt" stroke-linejoin="round" d="M275.698 164.283 L275.56 164.741 L275.95 164.573 L275.383 164.629 L275.845 164.739 L275.617 164.927 L276.13 166.155 L275.945 168.943 L276.472 170.839 L276.307 171.352 L276.806 171.841 L276.343 173.095 L276.755 174.109 L276.56 175.552 L276.917 176.214 L276.312 178.298 L276.599 178.906 L276.566 183.419 L276.883 185.709 L276.639 187.854 L276.991 188.79 L277.38 196.545 L277.727 197.334 L277.75 206.367 L278.086 207.231 L277.806 208.808 L278.401 210.232 L277.954 211.218 L278.223 212.171 L277.991 213.268 L278.426 215.272 L278.172 215.938 L278.683 218.554 L278.996 223.992 L279.098 224.568 L279.573 224.972 L279.236 226.409 L279.809 228.407 L279.481 228.674 L279.508 229.748 L279.862 230.445 L279.6 231.753 L279.252 232.022 L279.568 232.428 L279.883 234.394 L279.248 236.41 L279.538 237.025 L279.754 241.66 L279.504 242.589 L279.831 246.24 L279.263 248.419 "/></g><g><path fill="none" stroke="#000000" stroke-width="4" stroke-linecap="butt" stroke-linejoin="round" d="M836.504 152.763 L836.748 152.631 L836.492 152.852 L836.939 152.956 L836.621 152.926 L836.924 153.408 L836.913 155.949 L836.518 158.632 L836.466 164.76 L835.991 166.718 L836.469 180.666 L837.907 190.654 L838.557 192.871 L839.2 197.231 L840.031 209.129 L840.359 209.901 L840.286 211.974 L840.806 213.848 L841.284 218.744 L842.352 223.555 L842.435 228.039 L842.779 229.014 L842.472 230.576 L842.442 243.163 L843.136 247.674 L843.069 249.804 L841.513 253.382 "/></g><g><path fill="none" stroke="#000000" stroke-width="4" stroke-linecap="butt" stroke-linejoin="round" d="M886.991 153.389 L886.687 153.389 L887.027 153.31 L886.86 153.178 L886.652 153.311 L886.906 153.416 L886.645 153.366 L886.872 153.523 L886.566 153.475 L887.048 153.47 L886.838 153.652 L886.732 153.426 L887.017 153.567 L886.786 153.771 L887.021 154.755 L886.788 160.906 L887.115 169.594 L886.99 177.132 L887.159 180.524 L887.526 181.449 L887.762 184.168 L887.786 192.888 L888.124 193.675 L888.033 195.467 L888.509 197.453 L888.214 200.369 L888.482 204.409 L888.321 206.826 L888.647 208.144 L888.498 209.289 L889.04 216.413 L889.418 217.122 L889.882 221.291 L890.669 224.577 L891.673 240.361 L891.312 242.642 L891.53 244.664 L890.105 251.816 "/></g><g><path fill="none" stroke="#000000" stroke-width="4" stroke-linecap="butt" stroke-linejoin="round" d="M1100.28 154.98 L1100.22 155.32 L1100.33 155.118 L1100.56 155.655 L1100.79 155.612 L1100.43 155.649 L1100.34 156.258 L1100.58 156.69 L1100.9 162.848 L1100.92 167.46 L1100.68 168.052 L1101.13 170.914 L1100.31 181.642 L1100.46 186.064 L1101.08 188.948 L1101.67 190.1 L1101.44 192.049 L1104.35 203.752 L1104.29 205.644 L1104.83 207.182 L1104.87 209.219 L1105.72 213.173 L1105.94 215.788 L1105.68 216.414 L1106.5 220.061 L1106.81 224.18 L1107.34 224.801 L1107.35 226.512 L1107.82 228.191 L1107.98 233.503 L1108.73 236.434 L1108.59 236.865 L1109.46 239.431 L1109.47 241.718 L1108.67 243.623 "/></g><g><path fill="none" stroke="#000000" stroke-width="2" stroke-linecap="butt" stroke-linejoin="round" d="M126.757 204.383 L126.437 204.152 L126.594 203.798 L127.468 202.819 L126.634 202.595 L126.859 202.175 L125.697 201.365 L123.874 201.227 L121.054 202.352 L119.674 203.832 L118.716 208.535 L119.882 212.9 L122.392 214.951 L122.464 215.544 L125.072 217.017 L128.87 217.863 L131.422 216.875 L132.621 215.44 L134.741 211.215 L135.495 206.733 L135.187 202.808 L135.392 200.086 L133.959 197.949 L133.784 195.583 L132.72 194.154 L132.157 192.523 L132.155 190.558 L131.466 188.756 L130.1 186.548 L129.677 184.323 L127.692 179.814 L128.112 180.153 L127.526 180.246 L127.965 180.346 L127.746 180.752 L128.782 183.108 L128.684 185.216 L130.206 188.43 L130.909 190.609 L130.851 191.666 L132.264 194.141 L133.28 195.065 L134.512 197.008 L137.315 202.779 L142.906 212.405 L143.434 214.044 L144.135 214.572 L144.157 214.997 L144.503 214.949 L143.823 214.548 L143.423 212.291 L142.331 210.106 "/></g><g><path fill="none" stroke="#000000" stroke-width="2" stroke-linecap="butt" stroke-linejoin="round" d="M153.442 199.384 L153.2 199.502 L152.922 199.171 L153.095 198.887 L152.724 198.648 L152.218 198.639 L150.483 199.636 L150.239 200.458 L148.775 201.966 L148.29 206.31 L149.315 208.241 L149.284 208.693 L151.012 210.874 L153.435 212.48 L156.38 213.498 L157.807 213.777 L160.663 213.172 L162.101 212.622 L162.609 211.89 L163.649 211.287 L164.668 209.647 L164.559 208.973 L165.018 208.65 L165.655 206.935 L164.512 203.297 L164.687 202.191 L163.263 200.541 L160.842 198.65 L161.136 198.145 L160.748 197.76 L159.512 197.642 L157.465 196.868 L156.809 197.157 L155.871 196.366 L154.843 196.511 L152.687 197.684 L152.257 199.023 "/></g><g><path fill="none" stroke="#000000" stroke-width="2" stroke-linecap="butt" stroke-linejoin="round" d="M182.052 202.941 L183.34 202.342 L182.718 202.51 L182.538 202.134 L183.064 201.564 L182.741 199.961 L183.241 199.878 L182.499 199.614 L182.223 198.889 L181.329 198.601 L178.816 198.47 L176.198 199.005 L174.54 200.565 L173.868 201.934 L173.323 203.677 L174.055 208.665 L174.638 210.264 L175.863 211.359 L175.483 211.795 L175.657 212.55 L177.036 213.893 L177.242 214.573 L181.231 216.942 L184.591 217.74 L185.588 217.323 L186.439 217.541 L189.248 216.264 L192.297 213.902 "/></g><g><path fill="none" stroke="#000000" stroke-width="2" stroke-linecap="butt" stroke-linejoin="round" d="M191.73 186.871 L191.542 185.766 L191.212 185.547 L191.407 185.27 L191.717 185.549 L191.5 185.965 L192.053 186.311 L192.231 187.931 L192.868 189.251 L192.831 191.806 L193.544 194.24 L194.031 198.267 L193.682 199.192 L193.947 200.031 L194.704 200.676 L195.148 203.115 L196.032 204.587 L195.645 205.288 L196.137 207.886 L196.759 208.982 L196.946 210.877 L196.598 211.411 L198.391 214.08 L200.058 213.21 "/></g><g><path fill="none" stroke="#000000" stroke-width="2" stroke-linecap="butt" stroke-linejoin="round" d="M210.461 197.58 L210.988 197.585 L211.523 195.885 L212.678 195.66 L213.523 195.119 L213.136 195.041 L213.862 195.32 L213.837 195.087 L213.649 195.437 L213.879 195.507 L213.395 195.45 L213.316 196.581 L211.55 198.861 L209.059 200.491 L205.239 202.238 L203.247 202.851 L201.514 202.316 L201.529 201.902 L201.064 201.678 L201.371 201.443 L201.049 201.639 L201.678 201.755 L201.391 201.648 L201.295 201.918 L201.879 202.88 L202.435 203.206 L204.699 206.616 L206.366 208.285 L206.854 209.428 L208.32 210.41 L212.782 214.619 L215.034 215.48 L216.431 216.442 L217.561 216.569 L220.21 215.881 L221.867 214.558 "/></g><g><path fill="none" stroke="#000000" stroke-width="2" stroke-linecap="butt" stroke-linejoin="round" d="M226.902 203.919 L226.142 203.078 L225.425 202.923 L225.749 203.321 L226.623 203.182 L226.079 203.481 L227.915 204.054 L230.216 204.258 L229.963 204.085 L230.242 203.853 L233.331 203 L234.17 202.09 L234.82 201.934 L235.613 200.102 L235.714 198.234 L234.231 194.396 L232.411 193.151 L228.898 193.178 L223.338 196.679 L223.359 197.269 L222.562 198.002 L221.663 199.622 L220.979 201.932 L221.014 204.979 L221.775 208.305 L222.222 208.248 L225.322 211.552 L228.178 212.965 L232.027 214.056 L233.289 214.107 L237.211 213.118 L239.082 212.95 L239.103 212.486 L241.187 211.625 "/></g><g><path fill="none" stroke="#000000" stroke-width="2" stroke-linecap="butt" stroke-linejoin="round" d="M238.774 197.229 L238.286 196.54 L239.344 196.698 L238.862 197.085 L241.181 198.743 L241.452 199.228 L241.263 199.534 L243.06 201.284 L243.579 203.546 L244.822 204.872 L245.512 206.605 L246.048 206.865 L246.323 207.446 L246.015 208.02 L246.42 210.33 L246.931 210.8 L247.195 212.139 L246.692 213.011 L246.978 213.009 L246.462 213.203 L246.525 212.773 L246.029 212.498 L245.109 210.964 L245.459 210.415 L245.341 209.96 L244.847 209.936 L244.22 207.815 L245.319 202.397 L245.722 201.913 L246.272 201.835 L246.767 200.141 L248.093 198.068 L249.345 196.712 L253.163 194.145 L257.428 192.258 L260.963 192.355 L262.404 192.802 "/></g><g><path fill="none" stroke="#000000" stroke-width="2" stroke-linecap="butt" stroke-linejoin="round" d="M362.783 192.807 L362.502 192.404 L362.509 192.062 L362.763 192.115 L362.838 192.529 L365.77 195.271 L369.989 201.024 L371.896 206.337 L372.056 208.632 L371.745 210.876 L371.462 210.673 L371.552 210.201 L371.338 210.449 L370.251 206.878 L370.33 205.533 L369.456 200.462 L369.218 196.223 L370.199 192.364 L370.323 192.081 L370.618 192.315 L371.468 191.895 L371.856 191.171 L372.646 191.009 L373.92 191.792 L374.113 191.312 L375.405 191.668 L379.262 193.683 "/></g><g><path fill="none" stroke="#000000" stroke-width="2" stroke-linecap="butt" stroke-linejoin="round" d="M383.214 194.23 L383.068 193.94 L383.324 193.769 L382.683 193.951 L382.85 194.138 L382.387 194.214 L381.515 195.433 L381.305 198.811 L381.958 202.07 L383.1 205.031 L383.767 205.515 L384.807 207.493 L386.339 209.285 L388.236 210.643 L390.546 211.68 L394.196 210.774 L395.505 209.895 L397.728 207.341 L398.759 203.463 L398.711 200.735 L398.474 199.487 L397.952 198.978 L398.137 198.521 L397.775 197.317 L397.307 196.864 L397.246 197.082 L397.726 197.204 L397.205 197.218 L397.48 197.346 L397.395 198.302 L397.635 199.034 L397.888 198.981 L398.492 201.792 L400.509 204.064 L406.19 208.979 L408.008 210.174 L410.164 210.441 "/></g><g><path fill="none" stroke="#000000" stroke-width="2" stroke-linecap="butt" stroke-linejoin="round" d="M404.921 195.414 L404.599 194.468 L405.122 192.81 L407.751 194.754 L410.205 197.912 L411.948 201.533 L412.639 201.979 L413.272 205.31 L411.101 202.264 L410.448 197.661 L410.873 195.857 L410.466 194.241 L411.048 192.775 L412.001 191.517 L413.4 190.49 L415.823 190.177 L416.681 189.345 L417.772 190.501 L420.343 191.281 L424.726 193.732 L427.019 195.96 L429.47 198.999 L430.904 201.46 L431.217 203.066 L431.903 204.357 L432.999 209.362 L432.833 209.893 "/></g><g><path fill="none" stroke="#000000" stroke-width="2" stroke-linecap="butt" stroke-linejoin="round" d="M590.024 200.819 L590.054 200.166 L589.881 200.015 L589.797 200.323 L589.883 200.048 L589.445 199.814 L585.418 199.807 L579.609 200.693 L574.936 200.874 L574.765 201.113 L583.551 201.281 L585.07 200.914 L596.823 200.578 L596.2 200.941 L595.912 200.708 L592.933 201.264 L583.366 201.636 L581.848 201.608 L580.944 201.246 L580.201 201.586 L579.051 201.501 L579.238 201.315 L579.502 201.588 L580.053 201.004 L586.442 201.084 "/></g><g><path fill="none" stroke="#000000" stroke-width="2" stroke-linecap="butt" stroke-linejoin="round" d="M609.656 192.013 L609.469 191.646 L609.313 191.88 L609.385 191.404 L609.181 191.785 L609.356 193.267 L608.977 195.071 L609.06 208.648 L609.494 214.026 L609.496 218.709 L609.791 220.868 L610.062 220.737 L610.044 219.808 L611.185 218.874 L611.612 217.649 "/></g><g><path fill="none" stroke="#000000" stroke-width="2" stroke-linecap="butt" stroke-linejoin="round" d="M605.537 194.019 L605.276 191.253 L605.29 191.657 L605.621 191.323 L606.725 188.719 L607.841 187.543 L610.194 186.475 L613.354 185.794 L618.751 186.045 L621.217 186.675 L623.72 188.112 L625.874 190.454 L628.431 196.336 L628.165 199.412 L626.04 201.388 L623.028 201.88 L621.351 201.663 L619.529 202.09 L615.162 201.577 L611.786 200.575 L609.537 199.455 L608.165 198.041 L608.779 197.429 L609.898 197.034 "/></g><g><path fill="none" stroke="#000000" stroke-width="2" stroke-linecap="butt" stroke-linejoin="round" d="M712.129 180.784 L712.917 179.56 L715.196 177.623 L718.629 175.447 L718.906 175.332 L718.885 175.55 L718.238 176.124 L717.208 178.808 L716.269 179.694 L712.11 185.597 L707.104 191.2 L705.987 193.482 L704.772 194.946 L704.33 196.618 L705.127 197.809 L707.84 198.798 L709.727 199.117 L710.728 198.925 L714.398 199.636 L719.867 199.419 L723.377 199.668 L730.261 198.709 L730.227 198.933 L730.368 198.628 L729.926 198.888 L729.745 198.393 L729.461 198.423 L729.468 198.122 L728.234 197.045 L727.655 197.076 L725.041 195.263 "/></g><g><path fill="none" stroke="#000000" stroke-width="2" stroke-linecap="butt" stroke-linejoin="round" d="M722.039 192.584 L720.931 191.189 L720.524 191.148 L719.377 188.529 L719.27 191.855 L721.927 208.127 L722.248 208.329 L722.649 206.001 "/></g><g><path fill="none" stroke="#000000" stroke-width="2" stroke-linecap="butt" stroke-linejoin="round" d="M743.717 185.263 L743.026 184.278 L742.379 184.439 L742.271 184.108 L741.17 184.515 L739.738 185.779 L738.297 189.825 L737.631 194.358 L737.641 197.558 L738.73 200.763 L740.275 203.046 L741.637 204.394 L746.003 206.338 L746.92 206.339 L747.81 205.878 L749.064 206.209 L750.031 205.785 L752.697 203.628 L754.402 201.281 L755.106 199.322 L754.556 194.843 L751.707 189.667 L749.99 187.637 L746.578 185.137 L744.282 184.374 L743.585 183.474 L743.347 183.431 L743.311 183.778 L743.761 183.883 L743.53 184.838 L745.412 186.456 "/></g><g><path fill="none" stroke="#000000" stroke-width="2" stroke-linecap="butt" stroke-linejoin="round" d="M766.449 183.12 L765.883 182.662 L766.172 182.675 L766.02 183.067 L765.767 183.027 L765.05 184.359 L764.379 186.417 L763.881 190.591 L763.822 198.917 L764.49 201.319 L765.276 202.788 L766.372 203.959 L767.149 204.137 L768.049 205.44 L768.505 205.623 L771.915 204.92 L776.017 202.806 L778.36 200.579 L780.32 197.104 L780.327 193.741 L778.025 189.249 L777.652 189.352 L775.321 186.936 L772.741 185.93 L771.938 185.968 L771.384 186.351 L771.205 186.04 L771.094 186.552 L771.811 187.226 L772.547 187.345 "/></g><g><path fill="none" stroke="#000000" stroke-width="2" stroke-linecap="butt" stroke-linejoin="round" d="M791.044 183.745 L791.173 183.451 L790.324 182.914 L790.443 183.438 L789.31 184.448 L788.636 185.898 L788.109 189.843 L788.917 195.703 L791.22 200.748 L794.012 202.988 L796.203 203.707 L797.877 203.631 L801.147 202.252 L803.233 200.696 L806.138 195.927 L807.284 192.085 L806.393 185.517 L804.669 182.279 L803.243 181.015 L801.683 180.468 L799.858 180.663 L799.002 180.329 L796.682 182.276 L796.149 183.278 "/></g><g><path fill="none" stroke="#000000" stroke-width="2" stroke-linecap="butt" stroke-linejoin="round" d="M861.927 189.249 L861.328 189.178 L861.016 188.591 L861.099 188.911 L861.359 188.722 L861.269 188.96 L862.107 189.218 L862.169 189.651 L862.405 189.758 L862.503 189.454 L862.711 189.811 L865.179 188.243 L864.998 185.952 L864.63 186.1 L863.821 185.324 L862.371 185.964 L861.439 186.807 L860.981 188.229 L861.313 189.288 L863.194 190.877 L864.644 190.547 L865.389 190.702 L866.221 190.249 L866.628 189.516 L866.311 188.203 L865.723 187.216 L864.313 186.647 L863.653 186.686 L862.474 187.479 L862.076 189.296 L862.649 190.715 L862.897 190.54 L863.151 191.166 L863.558 190.726 L863.993 191.055 L865.962 189.659 L867.166 187.955 L867.198 187.389 L867.032 186.462 L865.774 185.291 L864.141 185.47 L863.239 185.808 L862.802 186.359 L862.015 186.488 L861.079 188.325 L861.404 189.938 L862.426 190.963 L862.64 190.859 L862.942 191.285 L864.584 191.042 L866.151 189.781 L866.505 188.544 L866.042 186.449 L865.279 185.192 L864.289 184.93 L862.498 185.732 L861.396 187.418 L861.187 189.499 L861.73 189.988 L863.571 190.124 L866.408 188.634 L866.454 188.164 L867.017 187.905 L867.414 187.109 L867 185.322 L865.935 184.105 L864.787 184.021 L863.542 184.471 L862.487 185.461 L862.13 187.365 L862.285 188.544 L862.788 189.711 L864.016 190.332 L865.33 190.24 L866.77 188.73 L866.957 187.8 L866.349 185.62 L865.163 183.788 L864.721 183.991 L864.304 183.399 L862.113 183.404 L861.965 184.042 L861.224 184.77 L861.207 186.288 L861.859 188.973 L863.255 191.736 "/></g><g><path fill="none" stroke="#000000" stroke-width="2" stroke-linecap="butt" stroke-linejoin="round" d="M866.055 205.008 L866.319 204.838 L865.637 204.442 L865.877 204.407 L865.69 203.988 L865.251 205.292 L865.728 206.163 L866.11 206.158 L865.943 205.844 L866.565 205.859 L867.107 204.504 L866.449 203.229 L864.985 202.723 L863.511 202.782 L862.576 203.389 L861.826 204.551 L862.11 206.061 L863.006 206.76 L865.324 206.893 L867.156 205.56 L867.051 203.82 L866.495 203.141 L866.384 203.311 L865.802 202.698 L863.909 202.579 L862.446 203.356 L861.972 204.22 L862.104 206.13 L862.741 206.716 L864.052 206.782 L865.62 205.994 L866.077 205.22 L865.968 203.787 L865.688 203.507 L865.534 203.69 L864.601 201.762 L863.631 201.572 L861.44 202.122 L860.152 204.719 L861.033 207.047 L862.364 207.768 L865.344 207.922 L865.972 207.279 L867.131 206.803 L867.768 206.01 L867.552 204.407 L866.868 202.946 L865.853 202.124 L863.732 202.296 L862.263 203.451 L862.043 204.198 L861.483 204.687 L861.454 207.151 L862.509 209.464 L863.143 210.099 L864.996 210.902 L867.13 209.966 L868.232 207.903 L868.123 206.322 L867.566 204.666 L866.303 202.425 L864.779 201.548 L864.322 201.484 L864.156 202.026 L864.013 201.462 L862.977 202.836 L862.757 204.053 L862.93 205.178 L863.702 206.171 L864.468 206.394 L865.655 206.175 L866.399 205.767 L867.186 204.51 L867.241 204.039 L866.59 202.952 L866.09 202.621 L865.906 202.902 L865.349 202.049 L864.18 201.866 L862.627 202.54 L862.102 203.975 L862.423 205.199 "/></g><g><path fill="none" stroke="#000000" stroke-width="2" stroke-linecap="butt" stroke-linejoin="round" d="M864.761 185.441 L863.809 185.518 L863.455 184.914 L861.821 184.733 L861.384 185.698 L861.67 187.898 L862.045 188.368 L862.643 188.597 L863.683 187.918 L863.921 187.037 L863.747 185.103 L862.745 183.417 L861.402 183.112 L860.514 183.833 L860.023 185.004 L859.71 186.37 L860.068 188.31 L860.209 188.106 L861.159 189.041 L862.771 189.542 L864.102 189.337 L866.184 188.421 L867.569 187.069 L867.676 184.876 L866.248 182.553 L864.695 181.337 L862.091 180.808 L858.976 182.056 L857.448 183.714 L857.359 184.607 L857.692 186.989 L859.083 188.727 L861.027 189.836 L864.667 190.853 "/></g><g><path fill="none" stroke="#000000" stroke-width="2" stroke-linecap="butt" stroke-linejoin="round" d="M862.997 201.559 L861.965 201.685 L861.689 202.746 L862.153 203.615 L862.273 203.356 L862.826 203.892 L864.107 204.051 L866.502 203.184 L867.267 202.134 L867.35 201 L866.287 199.261 L865.66 199.388 L865.121 199.069 L863.495 199.565 L862.079 200.828 L861.1 202.209 L860.917 203.83 L861.429 204.9 L861.74 204.711 L863.116 205.317 L864.093 205.281 L865.518 205.017 L867.202 203.98 L867.042 202.122 L866.092 201.129 L864.374 200.093 L862.353 199.993 L861.373 200.132 L860.473 201.612 L860.245 202.908 L860.649 204.167 L862.091 205.615 L862.374 206.365 L864.804 207.113 "/></g><g><path fill="none" stroke="#000000" stroke-width="2" stroke-linecap="butt" stroke-linejoin="round" d="M861.267 206.688 L861.044 207.172 L860.704 206.194 L859.866 206.421 L860.365 206.292 L861.005 207.678 L863.534 208.149 L864.429 207.705 L865.744 206.091 L865.794 203.884 L863.328 203.575 L860.857 204.628 L860.539 206.549 L860.772 207.796 L862.53 210.252 L863.388 210.454 L863.634 210.004 L863.98 210.249 L864.802 209.836 L865.698 207.998 L865.793 207.221 L864.915 205.082 L862.974 205.123 L862.537 206.732 L863.67 208.168 "/></g><g><path fill="none" stroke="#000000" stroke-width="2" stroke-linecap="butt" stroke-linejoin="round" d="M1122.7 195.149 L1122.56 194.764 L1122.18 194.779 L1122.76 194.714 L1122.54 194.947 L1123.89 197.986 L1125.21 202.633 L1126.18 204.468 L1126.37 205.843 L1126.87 206.334 L1127.04 208.292 L1127.35 208.528 L1126.96 208.388 L1127.2 207.925 L1126.94 207.038 "/></g><g><path fill="none" stroke="#000000" stroke-width="2" stroke-linecap="butt" stroke-linejoin="round" d="M1121.82 177.549 L1120.93 176.169 L1121.22 176.62 L1122.11 176.497 L1124.05 177.717 "/></g><g><path fill="none" stroke="#000000" stroke-width="2" stroke-linecap="butt" stroke-linejoin="round" d="M1130.28 194.816 L1130.04 194.816 L1130.23 195.525 L1129.98 197.083 L1130.45 198.374 L1130.8 198.604 L1133.23 205.495 L1133.2 205.136 L1133.02 205.359 L1133.21 204.883 L1132.8 205.113 L1133.18 200.955 L1134.03 198.65 L1135.87 195.574 L1135.78 195.977 L1136.32 195.756 L1136.19 196.01 L1136.3 195.804 L1136.54 196.25 L1137.27 196.185 L1137.6 196.738 L1138.19 196.808 L1138.82 197.614 L1139.52 197.812 L1140.3 199.245 L1141.02 199.776 L1141.86 202.194 L1141.92 205.019 L1141.69 204.976 L1141.8 204.642 L1141.64 204.882 L1141.42 204.639 L1140.42 201.132 L1140.57 199.817 L1141.09 199.334 L1141.42 197.013 L1142.09 195.968 L1143.73 194.7 L1145.3 194.618 L1148.23 196.163 L1149.57 197.804 L1151.08 198.872 L1153.59 201.821 L1153.87 202.883 L1155.21 204.273 L1156.43 206.372 L1157.61 206.87 L1158.18 207.46 L1159.18 207.708 L1159.75 207.4 L1160.66 207.702 L1163.47 207.361 "/></g><g><path fill="none" stroke="#000000" stroke-width="2" stroke-linecap="butt" stroke-linejoin="round" d="M1170.13 203.193 L1171.56 200.991 L1172.32 200.465 L1172.8 198.975 L1173.53 198.364 L1173.67 196.74 L1170.23 196.005 L1167.36 195.969 L1163.5 197.07 L1160.02 199.495 L1158.4 202.188 L1158.15 205.026 L1158.25 205.337 L1158.49 205.192 L1158.58 206.145 L1159.33 206.403 L1159.9 207.192 L1160.97 207.492 L1163.77 207.383 L1167.13 206.265 L1168.49 205.284 L1170.17 203.017 L1171.01 202.391 L1171.84 200.427 L1171.47 202.322 L1172.07 204.623 L1172.78 206.411 L1173.5 206.868 L1173.82 207.532 L1174.38 207.52 L1174.42 208.105 L1177.37 209.015 L1181.65 208.197 L1185.05 205.281 L1186.9 202.7 L1188.2 199.967 L1189.02 197.208 L1188.89 194.262 L1187.18 192.693 L1183.18 192.295 L1182.45 193.005 L1180.14 194.196 L1179.37 194.843 L1178.22 196.981 L1177.94 200.275 L1179.61 203.508 L1181.95 204.836 L1183.63 204.802 L1185.59 204.156 L1187.1 202.902 L1189.87 197.725 L1189.7 198.207 L1190.95 199.913 L1192.6 204.105 L1194.38 211.103 L1194.23 218.031 L1192.46 221.959 L1191.8 222.597 L1190.93 222.787 L1189.65 224.006 L1187.72 224.655 L1184.8 224.452 L1184.33 224.682 L1183.88 224.403 L1181.37 222.091 L1179.69 218.696 L1179.16 212.452 L1180.09 209.221 "/></g><g><path fill="none" stroke="#000000" stroke-width="2" stroke-linecap="butt" stroke-linejoin="round" d="M1194.01 199.57 L1195.46 199.132 L1196.76 199.255 L1198.29 198.748 L1199.57 198.805 L1204.86 196.622 L1205.65 195.81 L1206.09 195.775 L1206.2 195.196 L1206.54 195.044 L1206.51 194.186 L1205.96 193.289 L1203.58 192.213 L1200.99 192.357 L1199.41 192.877 L1199.01 193.463 L1197.34 194.202 L1196.18 195.975 L1194.71 200.111 L1194.56 201.586 L1194.91 204.482 L1196.43 207.126 L1197.47 208.231 L1200.74 209.801 L1204.04 210.94 L1206.75 210.822 L1208.01 211.337 L1209.74 211.297 L1211.11 210.773 L1212.57 210.901 L1214.55 210.287 L1218.64 208.101 L1219.27 207.489 L1220.91 205.493 L1221.72 203.266 "/></g><g><path fill="none" stroke="#000000" stroke-width="2" stroke-linecap="butt" stroke-linejoin="round" d="M1226.6 194.459 L1226.56 194.115 L1226.4 194.412 L1226.63 194.005 L1226.13 193.863 L1226.22 193.6 L1225.89 193.904 L1226.49 193.87 L1226.29 193.968 L1226.55 194.345 L1227.13 194.517 L1227.15 195.326 L1229.6 199.491 L1230.38 202.044 L1231.6 203.901 L1232.02 205.62 L1231.94 206.566 L1231.47 206.469 L1231.56 206.144 L1231.24 206.376 L1231.43 205.78 L1230.88 204.38 L1230.39 201.272 L1230.34 198.372 L1230.9 195.249 L1232.92 191.605 L1234.2 190.684 L1236.86 190.349 L1238.92 191.125 L1239.74 192.208 L1240.3 192.299 L1240.64 192.748 L1240.98 194.18 L1242.03 196.273 L1242.88 200.323 L1243.84 202.771 L1243.86 203.86 L1245.77 207.946 L1247.83 208.82 L1250.33 209.052 "/></g><g><path fill="none" stroke="#000000" stroke-width="2" stroke-linecap="butt" stroke-linejoin="round" d="M1263.05 202.861 L1263.32 201.509 L1264.55 199.929 L1264.95 197.675 L1263.97 196.186 L1263.3 196.1 L1262.88 195.682 L1261.12 195.943 L1258.96 195.808 L1256.45 196.246 L1255.06 196.542 L1254.28 197.274 L1252.55 197.865 L1249.79 199.811 L1247.66 202.602 L1247.52 206.106 L1248.51 207.224 L1249.71 207.456 L1253.2 206.758 L1257.42 203.905 L1258.57 202.582 L1258.92 202.787 L1260.4 201.466 L1261.08 201.317 L1260.92 201.458 L1262.4 202.588 L1265.76 210.246 L1268.09 214.175 L1269.42 215.674 "/></g><g><path fill="none" stroke="#000000" stroke-width="2" stroke-linecap="butt" stroke-linejoin="round" d="M1270.04 200.082 L1270.32 198.4 L1270.59 198.38 L1270.74 197.732 L1271.16 197.726 L1271.03 198.387 L1272.55 201.765 L1272.52 202.854 L1273.74 205.129 L1273.53 205.771 L1274.28 207.915 L1274.33 209.507 L1274.17 209.34 L1274.03 209.676 L1274.05 208.561 L1274.25 208.797 L1273.39 206.515 L1273.36 204.716 L1274.09 203.233 L1274.43 201.169 L1275.87 199.391 L1277.54 198.429 L1278.88 198.684 L1280.6 199.8 L1282.02 201.769 L1283.18 205.184 L1282.98 209.439 L1282.64 209.887 L1281.94 207.581 L1281.78 203.815 L1282.31 201.144 L1282.73 201.155 L1282.99 200.57 L1283.66 200.369 L1284.1 199.713 L1285.34 199.725 L1287.4 201.571 L1290.19 204.65 L1290.5 206.144 L1291.98 206.111 L1293.58 208.6 L1295.85 209.382 "/></g><g><path fill="none" stroke="#000000" stroke-width="2" stroke-linecap="butt" stroke-linejoin="round" d="M1296.56 202.943 L1296.82 202.795 L1296.46 202.163 L1297.09 200.67 L1297.2 200.948 L1298.87 200.343 L1304.17 199.961 L1307.58 198.769 L1308.53 197.548 L1309.34 197.158 L1310.3 194.529 L1310.46 193.258 L1309.94 191.871 L1309.43 191.505 L1307.74 191.087 L1305.38 191.394 L1304.42 191.895 L1302.79 191.776 L1301.25 192.637 L1300.94 193.352 L1300 193.786 L1298.82 195.322 L1298.48 200.138 L1298.9 203.158 L1299.93 205.948 L1301.92 208.764 L1304.65 210.969 L1306.23 211.81 L1307.91 212.072 L1311.65 213.339 L1314.72 213.849 L1317.7 213.474 L1319.14 212.87 L1319.46 211.303 L1318.97 210.836 "/></g><g><path fill="none" stroke="#000000" stroke-width="2" stroke-linecap="butt" stroke-linejoin="round" d="M963.56 183.745 L963.176 183.046 L959.677 183.031 L954.932 184.021 L953.391 183.947 L952.621 184.594 L947.927 185.5 L946.632 186.278 L946.346 186.775 L946.669 187.806 L947.38 188.036 L948.307 189.058 L949.86 189.613 L953.106 192.018 L957.564 194.189 L965.457 199.096 L967.169 199.663 L973.276 203.793 L975.066 205.361 L976.097 207.971 L975.736 209.349 L974.863 210.937 L972.387 213.224 L967.849 215.351 L966.598 215.301 L962.987 216.077 L959.283 215.961 L957.181 215.199 L956.219 215.28 L953.946 214.077 L952.483 212.378 L952.253 210.522 L952.591 208.396 L953.9 205.413 L955.798 203.272 L956.182 203.247 L956.67 202.488 L961.105 198.583 L967.177 194.323 L969.577 191.328 L970.143 189.226 L969.062 186.398 L963.859 183.319 L959.634 182.433 L958.117 182.533 L957.903 183.196 L958.462 184.207 "/></g><g><path fill="none" stroke="#000000" stroke-width="2" stroke-linecap="butt" stroke-linejoin="round" d="M988.033 186.593 L988 185.865 L987.658 185.524 L987.258 185.742 L987.203 185.511 L985.897 185.501 L985.046 186.225 L984.744 186.062 L982.736 187.902 L981.448 190.47 L981.286 195.613 L982.383 201.022 L984.625 206.589 L986.765 210.175 L987.971 210.911 L990.137 213.316 L990.599 213.318 L991.156 213.907 L992.018 213.575 L992.176 213.876 L993.483 213.585 L996.11 211.24 L998.985 207.217 L999.692 205.638 L1000.5 202.241 L1000.71 196.083 L999.322 192.232 L997.964 190.01 L996.433 188.446 L992.333 186.086 L991.697 185.423 L989.028 184.835 L988.628 184.127 L988.34 184.108 L988.163 184.943 L987.535 185.293 L987.972 186.201 "/></g><g><path fill="none" stroke="#000000" stroke-width="2" stroke-linecap="butt" stroke-linejoin="round" d="M1023.72 188.219 L1023.95 187.473 L1023.73 186.391 L1023.47 186.527 L1022.14 185.911 L1017.59 185.578 L1014.3 186.025 L1010.41 187.211 L1009.25 189.067 L1009.53 190.551 L1010.71 192.402 L1011.39 192.748 L1013.56 195.25 L1016.06 196.844 L1018.55 199.338 L1020.36 200.485 L1025.85 205.321 L1029.29 208.789 L1031.2 211.24 L1031.3 213.4 L1030.5 214.717 L1029.56 215.28 L1029.2 215.027 L1028.78 215.263 L1028.01 216.13 L1025.84 216.344 L1020.54 218.246 L1019.12 218.026 L1015.35 218.412 L1014.27 217.503 L1013.81 217.582 L1011.84 213.433 L1011.61 211.049 L1011.86 209.475 L1014.53 205.598 L1022.89 201.095 L1024.53 199.477 L1026.17 198.521 L1028.26 195.437 L1028.49 192.389 L1027.28 189.097 L1021.68 186.3 L1019.05 186.485 L1016.61 187.166 L1015.68 188.524 L1016.65 190.165 "/></g><g><path fill="none" stroke="#000000" stroke-width="2" stroke-linecap="butt" stroke-linejoin="round" d="M1044.14 187.007 L1043.17 186.503 L1040.57 186.549 L1038.57 188.289 L1036.21 193.023 L1035.61 196.624 L1034.92 198.552 L1035.04 202.348 L1035.49 205.25 L1037.03 209.149 L1040.56 213.24 L1042.32 213.492 L1043.35 214.235 L1045.71 214.653 L1048.29 214.045 L1051.32 212.34 L1055.36 208.255 L1056.94 205.041 L1057.8 202.015 L1058.32 198.01 L1057.76 193.489 L1056.44 189.495 L1055.14 187.345 L1051.03 183.749 L1047.72 182.708 L1045.59 182.899 "/></g><g><path fill="none" stroke="#000000" stroke-width="2" stroke-linecap="butt" stroke-linejoin="round" d="M773.781 262.187 L773.56 261.155 L773.985 262.06 L774.975 267.73 L774.419 277.903 L773.049 283.017 L767.971 295.07 L763.685 301.413 L760.433 304.664 L759.009 306.705 L751.939 312.762 L750.037 314.179 L748.968 314.155 L747.879 315.46 L746.19 316.013 L745.173 315.759 L744.774 316.097 L744.096 315.755 L744.294 314.342 "/></g><g><path fill="none" stroke="#000000" stroke-width="2" stroke-linecap="butt" stroke-linejoin="round" d="M748.832 302.741 L748.45 301.537 L748.93 299.7 L749.091 299.977 L749.073 299.56 L749.414 299.441 L749.28 299.868 L749.52 299.752 L749.215 299.709 L749.398 299.89 L749.278 300.192 L749.132 299.997 L748.515 302.276 L747.932 302.839 L747.714 303.899 L745.741 306.963 L741.831 310.659 L738.9 314.134 L737.245 315.198 L734.896 316.16 L732.567 316.333 L731.399 315.587 L731.437 315.199 L731.95 315.459 L731.789 315.03 L732.232 315.362 L731.993 315.271 L732.276 315.008 L733.035 315.075 L733.285 314.704 L733.329 315.328 L735.147 315.576 L736.788 316.492 L744.184 322.151 L744.844 322.284 L750.723 326.173 L752.094 326.737 L752.889 326.723 L754.412 328.092 L755.09 328.093 L755.056 327.702 L754.992 328.229 L754.87 327.691 L754.206 327.556 L753.161 328.058 "/></g><g><path fill="none" stroke="#000000" stroke-width="2" stroke-linecap="butt" stroke-linejoin="round" d="M452.571 311.784 L452.562 311.574 L452.535 311.79 L452.824 311.711 L452.856 312.019 L452.619 311.905 L452.862 311.786 L453.152 312.362 L454.585 313.301 L457.177 317.368 L458.403 320.41 L459.083 323.362 L459.653 323.351 L459.965 323.81 "/></g><g><path fill="none" stroke="#000000" stroke-width="2" stroke-linecap="butt" stroke-linejoin="round" d="M446.539 291.407 L444.08 287.563 L444.158 288.082 L444.373 287.649 L444.575 288.444 L445.902 289.462 L447.561 291.558 "/></g><g><path fill="none" stroke="#000000" stroke-width="2" stroke-linecap="butt" stroke-linejoin="round" d="M464.601 314.009 L464.286 314.058 L465.791 316.402 L467.362 317.675 L468.15 319.086 L469.525 320.454 L470.918 324.307 L470.588 324.708 L470.172 323.423 L469.741 323.603 L467.882 320.881 L466.953 318.707 L466.722 317.187 L467.085 314.875 L467.927 313.337 L469.135 312.871 L469.376 312.264 L470.731 312.85 L471.283 312.514 L472.721 312.797 L473.578 313.356 L474.051 313.138 L476.765 313.417 L479.659 314.82 L480.149 314.688 L482.021 316.324 L484.078 317.464 L485.93 319.452 L487.134 321.291 L487.751 321.592 L487.767 322.029 L488.422 322.845 L488.609 322.692 L489.138 323.9 L489.205 323.551 L489.93 323.409 L490.857 324.338 L493.025 324.374 "/></g><g><path fill="none" stroke="#000000" stroke-width="2" stroke-linecap="butt" stroke-linejoin="round" d="M505.9 315.872 L508.281 312.147 L508.37 310.633 L507.627 309.488 L507.213 309.505 L506.809 308.929 L506.266 309.286 L504.449 309.085 L502.895 309.662 L501.654 309.712 L500.093 310.29 L498.499 311.466 L497.639 311.587 L496.554 313.469 L495.836 314.133 L495.175 315.703 L494.935 317.856 L495.928 321.459 L498.482 323.746 L501.351 324.84 L504.561 325.448 L510.465 325.11 L516.002 323.68 L518.349 322.189 L519.54 320.963 L520.404 318.411 L520.132 316.458 L519.46 315.517 L518.974 315.077 L516.568 314.603 L514.064 315.767 L512.901 318.269 L513.646 321.119 L514.345 322.528 L516.741 324.547 L518.68 324.951 L519.881 325.818 L524.64 326.031 L527.354 325.375 L528.19 324.65 L529.714 324.324 L531.263 322.259 L531.496 320.898 L532.047 320.294 L531.916 318.558 L530.538 316.291 L525.184 310.638 L523.028 309.526 L521.846 309.837 L519.873 309.584 L517.76 309.82 L515.187 310.706 L514.665 311.497 L514.745 313.087 "/></g><g><path fill="none" stroke="#000000" stroke-width="2" stroke-linecap="butt" stroke-linejoin="round" d="M538.31 311.598 L536.859 310.57 L536.801 310.146 L537.347 310.571 L539.036 312.515 L539.944 313.123 L542.413 317.856 L543.542 318.901 L544.64 321.752 L544.954 321.552 L544.829 321.011 L545.093 321.469 L544.332 320.815 L544.493 320.178 L543.835 316.856 L544.595 313.785 L545.031 312.872 L546.254 311.873 L547.31 311.634 L547.74 311.226 L549.102 311.042 L549.055 310.842 L549.552 311.51 L550.671 311.538 L551.902 312.399 L552.618 313.362 L554.341 313.783 L554.938 313.573 L557.662 316.473 L558.094 318.125 L557.967 321.393 L557.493 321.512 L557.461 321.8 L557.416 321.383 L557.515 321.746 L557.143 321.749 L557.258 321.567 L556.499 321.212 L555.831 319.579 L555.757 317.123 L556.104 315.757 L557.27 313.743 L559.09 312.523 L561.222 312.091 L561.701 311.674 L562.495 312.524 L564.947 313.406 L567.779 315.53 L568.608 315.823 L571.041 319.388 L571.338 320.503 L571.695 320.753 L571.902 320.543 L572.634 321.737 L573.371 322.09 L573.347 322.387 L574.01 322.758 L575.318 322.451 "/></g><g><path fill="none" stroke="#000000" stroke-width="2" stroke-linecap="butt" stroke-linejoin="round" d="M578.541 315.259 L578.839 312.99 L579.032 313.231 L579.139 312.939 L579.248 313.482 L580.032 314.288 L581.049 314.784 L581.403 315.856 L582.366 316.914 L584.811 321.417 L585.41 322.029 L585.54 323.304 L585.168 323.803 "/></g><g><path fill="none" stroke="#000000" stroke-width="2" stroke-linecap="butt" stroke-linejoin="round" d="M573.924 300.313 L572.291 298.241 L572.365 297.098 L572.634 297.824 L572.837 297.289 L572.755 297.672 L573.04 297.846 L573.272 297.455 L574.749 298.008 L578.302 299.921 L578.784 300.466 "/></g><g><path fill="none" stroke="#000000" stroke-width="2" stroke-linecap="butt" stroke-linejoin="round" d="M589.522 312.894 L589.518 312.52 L589.289 312.595 L590.038 312.443 L589.853 312.696 L590.111 312.702 L590.354 313.361 L591.048 313.698 L593.172 316.067 L595.385 319.305 L596.879 322.662 L597.109 322.593 L597.29 324.8 L595.665 325.31 L595.187 324.924 L594.365 324.954 L594.084 324.318 L593.362 323.835 L592.904 322.072 L593.452 316.116 L594.481 313.074 L595.805 311.203 L599.101 308.899 L599.955 309.169 L602.567 309.086 L605.303 309.753 L606.283 310.434 L607.124 310.382 L608.848 313.755 L609.592 316.619 L609.843 316.54 L610.307 319.35 L611.671 321.946 L613.173 322.707 L615.081 322.665 L615.957 322.293 L616.917 322.433 L620.947 320.761 L621.827 319.983 L625.154 318.269 L629.974 314.813 L631.234 313.355 L632.988 312.138 L633.57 309.714 L633.051 307.661 L632.336 306.982 L630.557 306.341 L628.477 306.347 L624.063 307.94 L621.591 310.137 L620.818 311.718 L620.739 312.811 L621.422 314.576 L623.073 316.164 L627.69 317.487 L628.43 316.982 L629.592 317.433 L630.417 317.326 L633.56 315.952 L634.151 315.49 L635.445 313.16 L635.717 313.165 L635.609 312.589 L635.851 313.271 L635.493 313.399 L635.742 313.258 L636.661 315.83 L637.239 316.778 L637.512 316.74 L638.033 318.299 L641.433 324.143 L643.082 327.801 L644.422 332.401 L645.205 333.435 L645.791 337.065 L645.626 339.3 L644.802 341.572 L643.072 343.406 L641.735 343.857 L640.717 345.182 L638.226 346.361 L634.252 346.874 L632.722 347.71 L631.935 347.343 L629.534 347.493 L627.819 346.922 L624.708 346.645 L622.4 345.212 L621.794 345.256 L619.042 343.452 L617.232 339.817 L616.766 336.628 L617.185 335.249 L618.133 333.941 "/></g><g><path fill="none" stroke="#000000" stroke-width="2" stroke-linecap="butt" stroke-linejoin="round" d="M490.703 365.201 L489.689 363.837 L489.993 362.894 L490.483 362.537 L490.72 363.059 L491.386 363.16 L493.131 364.723 L493.948 366.29 L495.762 368.486 L498.958 375.435 L500.224 379.753 L499.19 369.498 L499.311 368.686 L499.783 368.151 L499.877 366.442 L501.219 363.165 L502.352 361.062 L505.488 359.355 L507.898 359.806 L509.806 360.633 "/></g><g><path fill="none" stroke="#000000" stroke-width="2" stroke-linecap="butt" stroke-linejoin="round" d="M512.923 364.668 L512.627 364.763 L513.028 364.6 L513.61 365.574 L515.274 366.168 L517.259 366.036 L518.127 366.277 L522.239 365.507 L523.348 363.966 L523.993 362.347 L523.969 359.992 L523.154 357.847 L522.517 358.073 L520.595 357.067 L516.492 357.39 L513.363 358.765 L511.58 360.056 L510.524 361.465 L509.568 364.313 L509.532 367.653 L510.429 370.378 L512.996 374.151 L515.989 376.201 L522.078 377.953 L524.871 377.378 L529.661 375.638 L531.953 375.22 "/></g><g><path fill="none" stroke="#000000" stroke-width="2" stroke-linecap="butt" stroke-linejoin="round" d="M548.35 367.4 L549.019 364.999 L547.961 363.18 L547.189 363.197 L544.9 362.368 L543.755 362.316 L542.327 362.754 L541.368 362.029 L540.74 362.377 L539.721 362.204 L538.013 363.377 L536.591 363.543 L534.169 365.28 L532.909 367.988 L532.849 369.033 L533.64 371.034 L533.69 372.204 L537.25 376.171 L540.624 376.721 L543.765 375.942 L546.063 373.702 L547.047 371.466 L547.259 370.182 L547.798 369.264 L547.88 367.117 L548.805 362.497 L548.473 362.712 L548.716 362.796 L548.289 364.69 L548.483 369.714 L549.699 374.321 L551.653 384.814 L552.309 389.767 L552.542 395.946 L552.881 397.392 L553.238 396.992 L553.187 397.4 L553.236 396.765 L554.009 396.214 L556.002 393.732 "/></g><g><path fill="none" stroke="#000000" stroke-width="2" stroke-linecap="butt" stroke-linejoin="round" d="M561.527 365.789 L560.91 362.571 L559.599 366.339 L559.635 373.549 L560.37 376.213 L561.639 378.794 L562.224 378.689 L562.749 380.3 L563.378 380.922 L564.037 381.391 L565.301 381.62 L566.924 381.321 L567.458 381.802 L567.897 380.508 L569.866 377.463 L571.282 372.881 L571.832 364.005 L571.604 364.495 L571.517 364.235 L571.332 366.715 L571.606 368.943 L572.504 371.85 L573.512 373.348 L574.091 373.551 L574.614 374.577 L575.405 375.251 L578.273 376.454 L579.736 376.297 L580.642 375.826 L582.098 376.02 L583.453 375.159 L584.663 375.043 L587.929 373.078 L589.486 370.888 L589.499 366.913 L590.161 368.573 L591.502 369.515 L592.074 369.305 L592.351 369.702 L593.695 369.991 L595.603 369.894 L597.483 369.318 L599.262 369.31 L601.233 368.291 L601.787 367.672 L602.607 367.553 L603.619 366.056 L603.805 363.391 L603.351 362.641 L603.374 361.641 L602.224 360.225 L601.747 360.404 L599.973 359.939 L596.493 360.554 L596.064 360.189 L595.129 361.102 L592.724 362.217 L589.741 364.871 L588.651 368.094 L589.182 370.872 L591.477 373.364 L593.86 374.268 L594.992 374.233 L596.845 375.082 L599.472 374.757 L601.273 375.317 L602.78 375.314 L604.972 374.554 L609.827 373.972 L617.21 371.559 L620.285 369.627 L622.747 367.388 L623.899 365.099 L623.924 364.434 L623.854 363.795 L623.616 364.084 L622.642 362.361 L621.82 362.488 L619.464 361.553 L616.58 361.244 L614.999 362.013 L614.942 361.605 L614.004 363.043 L612.795 364.043 L612.672 364.965 L614.116 367.768 L617.933 370.743 L624.955 377.674 L626.708 381.845 L627.221 385.579 L626.813 386.935 L625.079 389.225 L622.131 390.405 L620.521 390.688 L619.759 390.515 L618.052 391.215 L611.952 389.543 L609.276 387.333 L608.439 385.993 L608.138 384.752 L607.982 383.984 L608.466 381.137 L609.52 378.496 "/></g><g><path fill="none" stroke="#000000" stroke-width="2" stroke-linecap="butt" stroke-linejoin="round" d="M635.266 355.961 L636.554 355.309 L637.009 354.725 L637.838 354.843 L638.565 357.359 L638.675 360.346 L640.139 368.012 L641.283 370.69 L642.353 375.149 L643.792 378.322 L644.071 379.789 L644.58 379.919 L644.88 381.483 L645.173 381.559 L645.308 380.977 L645.057 380.955 L645.339 381.529 L645.244 381.325 L645.051 381.584 "/></g><g><path fill="none" stroke="#000000" stroke-width="2" stroke-linecap="butt" stroke-linejoin="round" d="M629.638 370.141 L628.375 369.087 L627.632 366.619 L627.671 366.923 L629.103 365.839 L632.792 365.141 L633.627 364.656 L634.432 364.528 L635.237 364.985 L636.064 364.997 L640.234 364.519 L650.094 364.547 L651.418 365.031 L651.888 364.612 L652.743 364.581 L652.959 364.002 L652.958 364.882 "/></g><g><path fill="none" stroke="#000000" stroke-width="2" stroke-linecap="butt" stroke-linejoin="round" d="M1061.63 342.683 L1061.4 341.979 L1061.04 342.001 L1061.47 342.347 L1061.06 342.603 L1060.87 343.759 L1060.73 349.037 L1061.32 351.431 L1062.08 364.458 L1061.97 367.838 L1062.31 368.28 L1062.35 369.71 L1062.35 369.217 L1062.58 369.412 L1062.28 369.02 L1062.51 368.937 L1062.56 367.967 "/></g><g><path fill="none" stroke="#000000" stroke-width="2" stroke-linecap="butt" stroke-linejoin="round" d="M1058.81 342.203 L1058.87 340.13 L1059.76 338.95 L1060.7 338.877 L1062.93 337.538 L1067.03 337.615 L1070.07 338.413 L1072.77 339.817 L1073.01 340.69 L1074.77 343.136 L1075.67 347.091 L1074.81 350.072 L1073.09 352.408 L1071.47 353.493 L1070.03 353.505 L1068.48 354.848 L1066.16 354.432 L1065.61 353.948 L1065.04 353.89 L1064.63 354.333 L1063.52 354.014 L1063.1 353.099 L1062.41 352.829 L1061.39 350.668 L1061.67 348.955 L1062.67 347.255 "/></g><g><path fill="none" stroke="#000000" stroke-width="2" stroke-linecap="butt" stroke-linejoin="round" d="M1080.38 345.169 L1080.96 347.113 L1082.39 348.866 L1087.22 351.575 L1093.7 352.24 L1094.71 352.579 L1095.19 352.258 L1095.92 352.412 L1096.17 351.789 L1098.37 350.197 L1099.13 348.637 L1099.11 347.3 L1098.38 345.412 L1097.31 344.015 L1092.58 341.545 L1090.49 341.322 L1087.9 340.537 L1085.06 340.53 L1084.67 340.797 L1084.69 340.555 L1085.4 340.714 L1085.36 341.004 L1085.99 341.475 L1088.71 341.91 "/></g><g><path fill="none" stroke="#000000" stroke-width="2" stroke-linecap="butt" stroke-linejoin="round" d="M1104.81 339.901 L1104.6 338.379 L1104.43 338.62 L1104.65 338.36 L1105.52 339.906 L1106.22 340.066 L1109.8 344.484 L1111.48 348.734 L1112.1 351.38 L1111.8 354.192 L1111.37 354.047 L1111.26 354.374 L1109.28 353.66 L1107.96 348.698 L1107.88 342.585 L1108.93 340.604 L1109.25 339.298 L1109.97 338.767 L1110.72 337.523 L1113.32 336.274 L1116.12 335.662 L1118.08 335.804 L1119.95 334.905 L1121.89 334.9 "/></g><g><path fill="none" stroke="#000000" stroke-width="2" stroke-linecap="butt" stroke-linejoin="round" d="M1132.51 330.437 L1133.04 329.457 L1133.16 329.668 L1132.95 329.994 L1132.82 329.763 L1132.3 331.297 L1132.52 340.359 L1133.59 347.01 L1134.18 349.302 L1135.1 351.21 L1135.04 351.554 L1134.61 351.005 "/></g><g><path fill="none" stroke="#000000" stroke-width="2" stroke-linecap="butt" stroke-linejoin="round" d="M1122.56 342.827 L1121.15 341.908 L1120.6 341.138 L1120.47 341.583 L1120.4 340.589 L1120.95 340.909 L1121.29 340.445 L1122.56 340.159 L1123.97 340.16 L1126.84 339.351 L1130.14 339.024 L1133.45 339.224 L1142.08 338.998 L1145.85 339.418 L1146.44 339.128 L1146.39 340.404 L1146.1 340.189 L1145.71 340.788 "/></g><g><path fill="none" stroke="#000000" stroke-width="2" stroke-linecap="butt" stroke-linejoin="round" d="M1175.16 339.017 L1175.43 338.483 L1175.76 339.007 L1176.55 338.916 L1177.71 341.356 L1179.19 346.805 L1179.7 350.693 L1180.12 350.589 L1180.43 351.307 L1179.99 351.321 L1179.95 351.677 L1179.66 351.413 "/></g><g><path fill="none" stroke="#000000" stroke-width="2" stroke-linecap="butt" stroke-linejoin="round" d="M1172.81 325.786 L1172.77 323.773 L1172.33 322.721 L1173.04 322.697 L1173.22 321.941 L1174.61 322.227 L1176.46 324.205 "/></g><g><path fill="none" stroke="#000000" stroke-width="2" stroke-linecap="butt" stroke-linejoin="round" d="M1187.58 336.82 L1187.5 336.215 L1187.91 336.965 L1188.32 336.887 L1190.22 338.855 L1191.51 341.144 L1193.71 343.58 L1194.2 344.938 L1195.09 346.098 L1195.16 347.089 L1195.68 348.009 L1195.42 350.991 L1194.75 351.201 L1194.18 351.955 L1194.08 351.724 L1193.44 351.944 L1193.76 351.673 L1193.09 350.75 L1192.87 349.666 L1193.61 344.9 L1194.54 344.449 L1194.85 343.367 L1195.69 342.484 L1197.07 342.265 L1198.02 341.51 L1201.13 341.519 L1204.3 343.122 L1205.72 344.746 L1206.21 346.398 L1207.18 346.864 L1207.69 347.959 L1208.18 347.995 L1208.59 348.657 L1209.71 349.083 L1209.96 349.551 L1211.64 350.504 L1213.08 350.731 L1216.81 350.254 L1217.93 350.429 L1220.77 348.704 L1221.7 348.443 "/></g><g><path fill="none" stroke="#000000" stroke-width="2" stroke-linecap="butt" stroke-linejoin="round" d="M1222 345.242 L1223.74 341.479 L1224.69 340.519 L1224.87 339.55 L1225.6 338.802 L1226.64 336.773 L1226.66 335.102 L1226.1 334.626 L1223.85 334.008 L1222.2 334.427 L1220.12 334.188 L1216.81 335.169 L1216.32 335.582 L1213.38 336.12 L1211.54 338.337 L1211.67 340.732 L1212.2 341.501 L1214.76 343.881 L1215.42 344.016 L1216.22 343.7 L1216.85 343.995 L1217.24 344.873 L1218.77 346.03 L1219.64 346.107 L1222.15 348.586 L1224.43 349.37 L1225.54 350.363 L1226.07 350.131 L1226.45 351.254 L1228.38 352.442 L1228.49 353.25 L1228.63 352.883 L1228.05 354.502 L1226.35 355.818 L1222.96 357.563 L1220.18 357.716 L1219.73 357.458 L1218.75 357.936 L1217.22 358.08 L1215.85 357.207 L1215.62 357.548 L1214.89 357.118 L1213.6 355.557 L1213.06 352.728 L1214.11 348.894 "/></g><g><path fill="none" stroke="#000000" stroke-width="2" stroke-linecap="butt" stroke-linejoin="round" d="M1229.95 337.222 L1231.72 336.576 L1232.28 336.884 L1233.4 336.51 L1235.77 336.718 L1236.07 337.362 L1237.55 337.975 L1239.98 339.669 L1241.11 341.896 L1241.82 342.378 L1242.83 344.049 L1243.42 345.644 L1243.77 348.861 L1244.3 350.162 L1244.36 352.057 L1242.95 352.412 "/></g><g><path fill="none" stroke="#000000" stroke-width="2" stroke-linecap="butt" stroke-linejoin="round" d="M1234.78 321.491 L1233.28 319.169 L1233.95 319.134 L1233.98 319.448 L1234.08 319.116 L1237.61 322.308 "/></g><g><path fill="none" stroke="#000000" stroke-width="2" stroke-linecap="butt" stroke-linejoin="round" d="M1261.33 338.652 L1260.48 336.601 L1260.23 336.838 L1258.47 336.476 L1255.73 336.512 L1253.8 337.086 L1252.26 338.365 L1251.46 338.29 L1249.97 339.586 L1248.56 342.032 L1247.81 344.089 L1248.08 345.592 L1249.59 348.963 L1251.34 350.067 L1253.95 350.845 L1255.67 350.482 L1258.88 351.227 L1260.12 350.368 L1261.38 350.319 L1262.51 349.581 L1262.86 348.743 L1263.41 348.537 L1264.85 345.163 L1264.97 340.446 L1264.66 335.158 L1263.99 333.7 L1264.01 330.269 L1263.34 326.525 L1263.24 323.459 L1262.2 319.116 L1261.28 322.158 L1262.33 328.662 L1264.23 333.926 L1265.88 337.089 L1267.6 342.214 L1272.16 348.779 L1273.11 349.361 L1273.65 350.156 L1274.12 349.718 L1275.95 350.495 L1277.09 350.269 "/></g><g><path fill="none" stroke="#000000" stroke-width="2" stroke-linecap="butt" stroke-linejoin="round" d="M1280.67 339.617 L1279.62 338.94 L1279.83 338.723 L1280.04 339.237 L1280.39 338.823 L1280.19 339.561 L1280.25 339.304 L1280.52 339.576 L1280.78 339.332 L1281.52 340.018 L1282.64 340.095 L1283.66 340.849 L1285.23 341.255 L1285.63 341.014 L1287.85 341.343 L1289.9 340.867 L1290.43 341.035 L1292.49 339.431 L1293.09 338.537 L1293.4 334.719 L1292.95 333.77 L1291.31 332.667 L1289.03 332.802 L1287.92 332.472 L1286.58 333.548 L1284.24 334.696 L1283.1 335.916 L1282.47 337.26 L1281.74 340.601 L1283.73 346.984 L1284.04 347.713 L1284.81 348.154 L1285.55 349.761 L1286.01 349.535 L1286.49 349.723 L1286.92 350.735 L1288.32 351.937 L1291.97 352.812 L1292.87 353.365 L1297.97 353.603 L1300.27 352.818 L1302.01 353.09 L1303.8 352.515 L1305.12 351.501 L1305.41 350.9 L1305.9 350.615 L1306.28 350.809 L1307.52 349.348 L1308.42 348.024 L1308.09 346.961 "/></g><g><path fill="none" stroke="#000000" stroke-width="2" stroke-linecap="butt" stroke-linejoin="round" d="M1143.59 391.953 L1143.49 391.434 L1143.16 391.629 L1143.06 391 L1142.79 390.846 L1142.68 391.12 L1142.5 390.469 L1142.1 390.467 L1141.84 390.048 L1136.93 389.913 L1133.2 390.98 L1132.53 392.03 L1131.39 392.273 L1130.06 393.315 L1129.77 396.92 L1130.12 397.905 L1129.91 398.458 L1131.01 400.455 L1135.49 404.092 L1139.68 405.761 L1143.21 406.066 L1144.89 406.618 L1149.74 406.283 L1153.03 405.516 L1154.39 404.697 L1154.99 404.948 L1156.11 404.694 L1158.85 403.039 L1160.23 401.363 L1160.46 400.555 L1160.03 398.127 L1158.95 396.952 L1157.33 396.198 L1154.81 395.84 L1153.46 396.45 L1152.96 397.179 L1152.95 398.572 L1153.52 400.357 L1157.87 403.892 L1159.49 403.741 L1160.88 404.662 L1162.57 405.177 L1165.82 404.926 L1166.29 405.12 L1169.62 403.144 L1170.47 403.058 L1172.95 399.973 L1173.2 398.11 L1173.22 397.135 L1172.38 395.449 L1171.68 395.093 L1171.04 393.564 L1170.11 392.684 L1169.05 392.316 L1167.73 390.999 L1166.56 390.935 L1165.93 390.093 L1165.18 389.702 L1164.45 390.003 L1160.88 389.445 L1159.52 390.114 L1159.46 389.893 L1159.1 391.056 L1161.59 392.645 "/></g><g><path fill="none" stroke="#000000" stroke-width="2" stroke-linecap="butt" stroke-linejoin="round" d="M1177.84 394.384 L1179.72 394.269 L1180.23 394.988 L1182.8 396.708 L1183.78 398.106 L1184.69 398.254 L1185.51 399.387 L1185.87 399.351 L1186.33 400.856 L1186.59 400.688 L1188.06 403.088 L1188.17 404.657 L1188.56 404.962 L1188.61 406.01 L1188.74 405.735 L1188.43 406.299 L1188.17 406.291 L1188.37 405.953 L1188.06 405.972 L1187.62 405.151 L1187.14 404.955 L1186.92 405.235 L1186.14 403.378 L1185.94 401.986 L1185.87 400.183 L1186.32 399.876 L1187.16 397.4 L1187.87 397.42 L1190.17 395.884 L1191.23 395.943 L1192.24 395.195 L1193.6 395.259 L1193.77 395.507 L1194.45 394.836 L1194.49 395.632 L1196.43 397.542 L1197.57 399.82 L1198.67 400.769 L1199.53 402.242 L1200.15 404.642 L1203.62 409.855 L1204.69 410.301 L1205.29 411.25 L1206.08 411.097 L1206.28 411.565 L1206.58 411.554 "/></g><g><path fill="none" stroke="#000000" stroke-width="2" stroke-linecap="butt" stroke-linejoin="round" d="M1220.4 391.944 L1220.2 389.051 L1220.5 388.944 L1219.92 391.825 L1220.2 396.391 L1221.68 401.269 L1221.87 402.909 L1222.61 403.903 L1223.04 405.533 L1223.56 405.46 L1224.25 408.725 L1225.1 410.609 L1225.19 411.779 L1225.1 411.526 L1224.28 412.314 "/></g><g><path fill="none" stroke="#000000" stroke-width="2" stroke-linecap="butt" stroke-linejoin="round" d="M1209.15 403.98 L1207.57 402.056 L1209.41 398.978 L1210.35 399.161 L1214.67 397.504 L1216.94 397.718 L1221.1 397.25 L1222.13 396.611 L1222.96 396.572 L1225.93 398.354 L1226.62 397.812 L1229.61 398.078 L1231.92 398.889 L1232.5 398.645 L1233.25 399.524 L1235.38 400.406 L1236.53 400.399 "/></g><g><path fill="none" stroke="#000000" stroke-width="2" stroke-linecap="butt" stroke-linejoin="round" d="M1248.02 400.192 L1247.47 399.322 L1247.76 398.964 L1247.25 397.748 L1247.55 397.256 L1247.66 397.778 L1247.37 397.344 L1247.5 397.523 L1247.23 397.335 L1246.87 397.691 L1246.76 397.158 L1246.6 397.695 L1245 397.268 L1242.73 397.501 L1239.42 398.574 L1238.48 398.396 L1237.16 399.944 L1236.47 400.041 L1235.49 400.817 L1234.61 402.387 L1233.54 403.168 L1233.07 403.962 L1232.33 408.293 L1233.36 410.833 L1233.78 410.737 L1234.52 411.227 L1234.71 410.994 L1235.35 411.574 L1239.35 411.278 L1241.11 409.789 L1241.39 410.047 L1242.72 408.953 L1244.37 406.787 L1245.33 406.142 L1245.71 405.016 L1245.92 405.212 L1245.84 404.861 L1246.15 406.789 L1246.42 406.63 L1246.82 407.551 L1247.44 408.021 L1247.95 409.633 L1249.62 411.375 L1250.41 412.924 L1250.72 412.627 L1251.18 413.341 L1251.7 412.861 L1252.21 413.414 L1254.95 413.38 L1255.79 412.921 L1256.54 412.005 "/></g><g><path fill="none" stroke="#000000" stroke-width="2" stroke-linecap="butt" stroke-linejoin="round" d="M1260.53 400.469 L1261.18 399.937 L1260.8 400.534 L1263.2 402.628 L1263.48 403.803 L1264.79 405.82 L1265.91 409.554 L1266.08 411.585 L1265.29 411.708 L1265.03 412.148 L1264.62 411.551 "/></g><g><path fill="none" stroke="#000000" stroke-width="2" stroke-linecap="butt" stroke-linejoin="round" d="M1258.79 385.076 L1258.43 383.2 L1258.98 383.233 L1259.02 383.8 L1258.96 383.494 L1259.44 383.576 L1260.04 384.728 L1261.05 385.262 L1261.66 387.051 "/></g><g><path fill="none" stroke="#000000" stroke-width="2" stroke-linecap="butt" stroke-linejoin="round" d="M1271.55 398.739 L1271.94 399.31 L1272.64 399.221 L1273.42 400.227 L1274.14 400.55 L1275.86 403.264 L1277.08 405.887 L1277.01 406.578 L1277.72 409.23 L1277.43 410.004 L1277.47 409.606 L1277.18 409.637 L1277.42 409.326 L1277.37 409.788 L1277.11 409.03 L1277.49 409.388 L1277.2 409.011 L1278.2 406.255 L1278.52 404.034 L1279.74 401.93 L1279.89 402.231 L1280.38 401.82 L1280.79 400.793 L1281.55 401.024 L1282.26 399.871 L1282.56 400.382 L1284.04 400.361 L1284.93 401.245 L1285.76 401.569 L1288.22 405.139 L1290.3 410.047 L1290.44 411.285 L1291.89 413.111 L1293.26 413.882 "/></g><g><path fill="none" stroke="#000000" stroke-width="2" stroke-linecap="butt" stroke-linejoin="round" d="M1298.62 405.458 L1298.43 403.663 L1298.58 403.181 L1298.78 403.432 L1298.96 403.084 L1299.58 403.432 L1302.3 403.141 L1305.41 403.803 L1305.89 403.154 L1306.45 403.066 L1307.01 403.836 L1307.81 403.948 L1309.96 403.706 L1310.98 403.925 L1311.59 403.144 L1312.06 403.04 L1312.69 400.466 L1311.68 398.602 L1310.98 397.788 L1308.68 396.571 L1308.34 396.093 L1307.39 395.835 L1306.41 395.975 L1304.22 395.552 L1300.38 397.264 L1299.41 399.141 L1298.9 402.604 L1299.48 405.625 L1300.4 407.577 L1303.04 410.222 L1304.92 411.602 L1306.62 412.37 L1307.43 411.896 L1311.82 412.129 L1316.93 410.898 L1318.31 410.291 "/></g><g><path fill="none" stroke="#000000" stroke-width="2" stroke-linecap="butt" stroke-linejoin="round" d="M1323.17 402.931 L1322.95 401.275 L1323.08 399.182 L1323.37 399.006 L1324.04 400.081 L1325.57 401.088 L1326.7 404.438 L1327.02 406.49 L1326.6 409.751 L1325.3 412.806 L1324.95 412.298 L1324.56 410.139 L1325.48 406.18 L1326.84 402.56 L1330.56 396.187 L1334.74 393.221 L1339.47 392.417 L1344.24 393.054 L1346.66 394.248 "/></g><g><path fill="none" stroke="#000000" stroke-width="2" stroke-linecap="butt" stroke-linejoin="round" d="M959.586 266.71 L959.515 266.367 L960.158 266.012 L961.034 264.795 L960.823 264.662 L959.216 266.121 L955.92 268.24 L955.651 268.83 L952.421 271.876 L950.018 275.118 L948.157 278.394 L946.58 282.985 L945.814 286.947 L946.064 291.325 L946.665 295.192 L949.458 303.342 L952.861 310.303 L954.383 312.052 L955.751 314.348 L957.398 315.758 L959.159 318.492 L962.246 322.215 L966.394 325.817 L968.875 327.529 L970.226 329.209 L970.958 329.429 L972.182 330.595 L977.433 334.163 L978.365 334.173 L978.611 334.669 L978.418 334.261 L978.181 334.485 L978.58 334.401 L978.519 334.103 L978.252 333.946 L978.315 334.365 L978.107 334.27 L978.292 334.72 L978.012 333.74 L978.314 334.211 L977.947 334.137 L977.974 334.374 L978.053 334.021 L977.704 333.978 L977.643 333.521 L977.581 333.946 L977.116 333.254 L975.862 332.872 "/></g><g><path fill="none" stroke="#000000" stroke-width="2" stroke-linecap="butt" stroke-linejoin="round" d="M975.319 319.851 L975.005 319.248 L974.568 319.202 L974.691 318.64 L974.413 318.553 L974.272 317.468 L974.526 317.377 L974.657 318.143 L976.836 320.701 L982.509 325.333 L984.644 328.233 L988.176 331.812 L989.083 333.513 L990.709 334.858 L990.757 335.433 L991.383 336.168 L992.493 336.628 L992.469 337.084 L992.681 336.239 L992.622 336.908 L992.615 336.378 L992.516 336.83 L992.378 336.403 L992.48 337.124 L992.73 336.899 L992.607 336.632 L992.528 337.033 L992.351 336.922 L992.475 336.67 L992.321 337.018 L992.581 336.951 L992.572 336.47 L992.264 337.154 L992.246 336.573 L992.23 337.247 L992.451 336.761 L992.388 337.219 L992.407 336.782 L992.277 337.038 L992.247 336.678 L992.055 336.893 L992.213 336.58 L992.044 336.84 L992.28 336.949 L992.239 336.673 L991.966 336.792 L991.859 336.399 L991.965 337.08 L991.809 336.66 L989.97 337.138 L987.901 336.752 L986.764 336.72 L985.625 337.096 L985.224 336.754 L981.995 336.643 L980.322 337.26 L977.593 337.396 L974.851 337.942 L973.81 338.477 L970.666 338.513 L966.067 340.986 L964.975 341.061 L963.803 341.95 L963.524 341.86 L963.6 342.211 L963.675 341.872 L963.796 342.058 L964.048 341.745 L964.063 341.989 L964.284 341.502 L964.801 341.326 L965.445 341.654 "/></g>
</svg>
